<svg xmlns="http://www.w3.org/2000/svg" xmlns:xlink="http://www.w3.org/1999/xlink" width="24" height="24" viewBox="0 0 24 24">
 <defs>
  <style id="current-color-scheme" type="text/css">.ColorScheme-Text {
            color: #232629;
            }</style>
  <linearGradient id="linearGradient22" x1="2" x2="46.54" y1="1028.4" y2="1031.1" gradientTransform="matrix(.22728 0 0 .22728 -22.227 -206.72)" gradientUnits="userSpaceOnUse" xlink:href="#linearGradient4160-4"/>
  <linearGradient id="linearGradient4160-4" x1="2" x2="46.54" y1="1028.4" y2="1031.1" gradientTransform="matrix(.22728 0 0 .22728 -22.227 -206.72)" gradientUnits="userSpaceOnUse">
   <stop stop-color="#ff7900" offset="0"/>
   <stop stop-color="#ffb500" offset="1"/>
  </linearGradient>
 </defs>
<defs>
<linearGradient id="linear-pattern-0" gradientUnits="userSpaceOnUse" x1="2" y1="1028.400024" x2="46.540001" y2="1031.099976" gradientTransform="matrix(-0.0127657, -0.197942, 0.197942, -0.0127657, -185.790288, 34.241492)">
<stop offset="0" stop-color="rgb(100%, 47.45098%, 0%)" stop-opacity="1"/>
<stop offset="1" stop-color="rgb(100%, 70.980392%, 0%)" stop-opacity="1"/>
</linearGradient>
</defs>
<path fill-rule="nonzero" fill="rgb(100%, 33.333333%, 33.333333%)" fill-opacity="1" d="M 4.472656 7.636719 C 4.832031 7.636719 5.125 7.929688 5.125 8.289062 L 5.125 15.710938 C 5.125 16.070312 4.832031 16.363281 4.472656 16.363281 C 4.109375 16.363281 3.816406 16.070312 3.816406 15.710938 L 3.816406 8.289062 C 3.816406 7.929688 4.109375 7.636719 4.472656 7.636719 Z M 4.472656 7.636719 "/>
<path fill-rule="nonzero" fill="rgb(100%, 33.333333%, 33.333333%)" fill-opacity="1" d="M 4.363281 4.910156 C 2.554688 4.910156 1.089844 6.375 1.089844 8.183594 L 1.089844 15.816406 C 1.089844 17.625 2.554688 19.089844 4.363281 19.089844 L 12.109375 19.089844 C 11.851562 18.585938 11.664062 18.035156 11.558594 17.453125 L 4.523438 17.453125 C 3.53125 17.453125 2.726562 16.703125 2.726562 15.777344 L 2.726562 8.222656 C 2.726562 7.296875 3.53125 6.546875 4.523438 6.546875 L 16.203125 6.546875 C 17.195312 6.546875 18 7.296875 18 8.222656 L 18 10.390625 C 18.570312 10.441406 19.121094 10.574219 19.636719 10.777344 L 19.636719 8.183594 C 19.636719 6.375 18.171875 4.910156 16.363281 4.910156 Z M 4.363281 4.910156 "/>
<path fill-rule="nonzero" fill="rgb(100%, 33.333333%, 33.333333%)" fill-opacity="1" d="M 20.726562 9.273438 L 20.726562 11.335938 C 21.492188 11.835938 22.140625 12.503906 22.609375 13.296875 C 22.796875 12.921875 22.910156 12.484375 22.910156 11.996094 C 22.910156 10.390625 21.664062 9.324219 20.726562 9.273438 Z M 20.726562 9.273438 "/>
<path fill-rule="nonzero" fill="url(#linear-pattern-0)" d="M 17.175781 12.007812 C 19.578125 11.851562 21.65625 13.675781 21.808594 16.082031 C 21.964844 18.488281 20.140625 20.5625 17.734375 20.71875 C 15.332031 20.871094 13.253906 19.050781 13.101562 16.644531 C 12.945312 14.238281 14.769531 12.164062 17.175781 12.007812 Z M 17.175781 12.007812 "/>
<path fill-rule="nonzero" fill="rgb(100%, 100%, 100%)" fill-opacity="1" d="M 17.453125 13.984375 C 17.234375 13.984375 17.058594 14.160156 17.058594 14.378906 L 17.058594 17.160156 C 17.058594 17.378906 17.234375 17.554688 17.453125 17.554688 L 17.457031 17.554688 C 17.675781 17.554688 17.851562 17.378906 17.851562 17.160156 L 17.851562 14.378906 C 17.851562 14.160156 17.675781 13.984375 17.457031 13.984375 Z M 17.453125 18.347656 C 17.234375 18.347656 17.058594 18.523438 17.058594 18.746094 C 17.058594 18.964844 17.234375 19.140625 17.453125 19.140625 C 17.675781 19.140625 17.851562 18.964844 17.851562 18.746094 C 17.851562 18.523438 17.675781 18.347656 17.453125 18.347656 Z M 17.453125 18.347656 "/>
</svg>
