<svg xmlns="http://www.w3.org/2000/svg" xmlns:xlink="http://www.w3.org/1999/xlink" width="24" height="24" viewBox="0 0 24 24">
 <defs>
  <style id="current-color-scheme" type="text/css">.ColorScheme-Text {
            color: #232629;
            }</style>
 </defs>
<path class="ColorScheme-Text" fill="currentColor" d="M 4.363281 4.910156 C 2.554688 4.910156 1.089844 6.375 1.089844 8.183594 L 1.089844 15.816406 C 1.089844 17.625 2.554688 19.089844 4.363281 19.089844 L 16.363281 19.089844 C 18.171875 19.089844 19.636719 17.625 19.636719 15.816406 L 19.636719 8.183594 C 19.636719 6.375 18.171875 4.910156 16.363281 4.910156 Z M 4.523438 6.546875 L 16.203125 6.546875 C 17.195312 6.546875 18 7.296875 18 8.222656 L 18 15.777344 C 18 16.703125 17.195312 17.453125 16.203125 17.453125 L 4.523438 17.453125 C 3.53125 17.453125 2.726562 16.703125 2.726562 15.777344 L 2.726562 8.222656 C 2.726562 7.296875 3.53125 6.546875 4.523438 6.546875 Z M 4.523438 6.546875 "/>
<path class="ColorScheme-Text" fill="currentColor" d="M 20.726562 14.726562 C 21.664062 14.675781 22.910156 13.609375 22.910156 11.996094 C 22.910156 10.390625 21.664062 9.324219 20.726562 9.273438 Z M 20.726562 14.726562 "/>
<path class="ColorScheme-Text" fill="currentColor" d="M 4.472656 7.636719 L 12.328125 7.636719 C 12.6875 7.636719 12.980469 7.929688 12.980469 8.289062 L 12.980469 15.710938 C 12.980469 16.070312 12.6875 16.363281 12.328125 16.363281 L 4.472656 16.363281 C 4.109375 16.363281 3.816406 16.070312 3.816406 15.710938 L 3.816406 8.289062 C 3.816406 7.929688 4.109375 7.636719 4.472656 7.636719 Z M 4.472656 7.636719 "/>
</svg>
