<svg xmlns="http://www.w3.org/2000/svg" xmlns:xlink="http://www.w3.org/1999/xlink" width="24" height="24" viewBox="0 0 24 24">
 <defs>
  <style id="current-color-scheme" type="text/css">.ColorScheme-Text {
            color: #232629;
            }</style>
 </defs>
<path class="ColorScheme-Text" fill="currentColor" d="M 12.320312 4.910156 C 12.445312 4.902344 12.648438 5.019531 12.527344 5.359375 L 10.453125 10.820312 L 14.484375 10.820312 C 14.628906 10.820312 14.730469 10.914062 14.730469 11.039062 C 14.730469 11.101562 14.695312 11.199219 14.609375 11.296875 L 14.605469 11.304688 L 8.703125 18.90625 C 8.417969 19.253906 8.03125 19.082031 8.1875 18.640625 L 10.277344 13.175781 L 6.230469 13.175781 C 6.089844 13.167969 6 13.082031 6 12.976562 C 6 12.90625 6.027344 12.816406 6.117188 12.703125 L 12.027344 5.089844 C 12.128906 4.960938 12.242188 4.914062 12.320312 4.910156 Z M 12.320312 4.910156 "/>
<path fill-rule="nonzero" fill="rgb(100%, 33.333333%, 33.333333%)" fill-opacity="1" d="M 20.726562 14.726562 C 21.664062 14.675781 22.910156 13.609375 22.910156 11.996094 C 22.910156 10.390625 21.664062 9.324219 20.726562 9.273438 Z M 20.726562 14.726562 "/>
<path fill-rule="nonzero" fill="rgb(100%, 33.333333%, 33.333333%)" fill-opacity="1" d="M 4.363281 4.910156 C 2.554688 4.910156 1.089844 6.375 1.089844 8.183594 L 1.089844 15.816406 C 1.089844 17.625 2.554688 19.089844 4.363281 19.089844 L 7.09375 19.089844 C 7.050781 18.84375 7.070312 18.566406 7.175781 18.265625 L 7.179688 18.261719 L 7.488281 17.453125 L 4.523438 17.453125 C 3.53125 17.453125 2.726562 16.703125 2.726562 15.777344 L 2.726562 8.222656 C 2.726562 7.296875 3.53125 6.546875 4.523438 6.546875 L 9.53125 6.546875 L 10.800781 4.910156 Z M 13.609375 4.910156 C 13.652344 5.167969 13.632812 5.449219 13.535156 5.730469 L 13.226562 6.546875 L 16.203125 6.546875 C 17.195312 6.546875 18 7.296875 18 8.222656 L 18 15.777344 C 18 16.703125 17.195312 17.453125 16.203125 17.453125 L 11.191406 17.453125 L 9.921875 19.089844 L 16.363281 19.089844 C 18.171875 19.089844 19.636719 17.625 19.636719 15.816406 L 19.636719 8.183594 C 19.636719 6.375 18.171875 4.910156 16.363281 4.910156 Z M 13.609375 4.910156 "/>
</svg>
