<svg xmlns="http://www.w3.org/2000/svg" xmlns:xlink="http://www.w3.org/1999/xlink" width="24" height="24" viewBox="0 0 24 24">
 <defs>
  <style id="current-color-scheme" type="text/css">.ColorScheme-Text {
            color: #232629;
            }</style>
 </defs>
<path class="ColorScheme-Text" fill="currentColor" d="M 4.363281 4.910156 C 2.554688 4.910156 1.089844 6.375 1.089844 8.183594 L 1.089844 15.816406 C 1.089844 17.625 2.554688 19.089844 4.363281 19.089844 L 16.363281 19.089844 C 18.171875 19.089844 19.636719 17.625 19.636719 15.816406 L 19.636719 8.183594 C 19.636719 6.375 18.171875 4.910156 16.363281 4.910156 Z M 4.523438 6.546875 L 16.203125 6.546875 C 17.195312 6.546875 18 7.296875 18 8.222656 L 18 15.777344 C 18 16.703125 17.195312 17.453125 16.203125 17.453125 L 4.523438 17.453125 C 3.53125 17.453125 2.726562 16.703125 2.726562 15.777344 L 2.726562 8.222656 C 2.726562 7.296875 3.53125 6.546875 4.523438 6.546875 Z M 4.523438 6.546875 "/>
<path class="ColorScheme-Text" fill="currentColor" d="M 20.726562 14.726562 C 21.664062 14.675781 22.910156 13.609375 22.910156 11.996094 C 22.910156 10.390625 21.664062 9.324219 20.726562 9.273438 Z M 20.726562 14.726562 "/>
<path fill-rule="nonzero" fill="rgb(100%, 33.333333%, 33.333333%)" fill-opacity="1" d="M 10.363281 8.882812 C 11.054688 8.886719 11.609375 9.449219 11.609375 10.128906 C 11.609375 10.816406 11.050781 11.375 10.355469 11.375 C 10.007812 11.375 9.730469 11.65625 9.730469 12 L 9.730469 13.871094 C 9.730469 14.214844 10.007812 14.492188 10.355469 14.492188 C 10.699219 14.492188 10.976562 14.214844 10.976562 13.871094 L 10.976562 12.546875 C 12.054688 12.269531 12.855469 11.296875 12.855469 10.128906 C 12.855469 8.761719 11.753906 7.65625 10.394531 7.636719 C 10.386719 7.636719 10.378906 7.636719 10.375 7.636719 L 10.355469 7.636719 C 10.347656 7.636719 10.339844 7.636719 10.332031 7.636719 C 8.972656 7.65625 7.871094 8.761719 7.871094 10.128906 C 7.871094 10.472656 8.148438 10.753906 8.492188 10.753906 C 8.839844 10.753906 9.117188 10.472656 9.117188 10.128906 C 9.117188 9.449219 9.671875 8.886719 10.363281 8.882812 Z M 10.363281 16.363281 C 10.707031 16.363281 10.988281 16.085938 10.988281 15.742188 C 10.988281 15.394531 10.707031 15.117188 10.363281 15.117188 C 10.019531 15.117188 9.742188 15.394531 9.742188 15.742188 C 9.742188 16.085938 10.019531 16.363281 10.363281 16.363281 Z M 10.363281 16.363281 "/>
</svg>
