<svg xmlns="http://www.w3.org/2000/svg" xmlns:xlink="http://www.w3.org/1999/xlink" width="24" height="24" viewBox="0 0 24 24">
 <defs>
  <style id="current-color-scheme" type="text/css">.ColorScheme-Text {
            color: #232629;
            fill: currentColor;
            }</style>
 </defs>
<path fill-rule="nonzero" fill="rgb(100%, 33.333333%, 33.333333%)" fill-opacity="1" d="M 4.363281 4.910156 C 2.554688 4.910156 1.089844 6.375 1.089844 8.183594 L 1.089844 15.816406 C 1.089844 17.625 2.554688 19.089844 4.363281 19.089844 L 16.363281 19.089844 C 18.171875 19.089844 19.636719 17.625 19.636719 15.816406 L 19.636719 8.183594 C 19.636719 6.375 18.171875 4.910156 16.363281 4.910156 Z M 4.523438 6.546875 L 16.203125 6.546875 C 17.195312 6.546875 18 7.296875 18 8.222656 L 18 15.777344 C 18 16.703125 17.195312 17.453125 16.203125 17.453125 L 4.523438 17.453125 C 3.53125 17.453125 2.726562 16.703125 2.726562 15.777344 L 2.726562 8.222656 C 2.726562 7.296875 3.53125 6.546875 4.523438 6.546875 Z M 4.523438 6.546875 "/>
<path fill-rule="nonzero" fill="rgb(100%, 33.333333%, 33.333333%)" fill-opacity="1" d="M 20.726562 14.726562 C 21.664062 14.675781 22.910156 13.609375 22.910156 11.996094 C 22.910156 10.390625 21.664062 9.324219 20.726562 9.273438 Z M 20.726562 14.726562 "/>
</svg>
