<?xml version="1.0" encoding="UTF-8"?>
<svg width="64" height="64" version="1.1" viewBox="0 0 16.933 16.933" xml:space="preserve"
  xmlns="http://www.w3.org/2000/svg" xmlns:xlink="http://www.w3.org/1999/xlink">
  <defs>
    <linearGradient id="a" x1="7.937" x2="7.937" y1="15.081" y2="1.852"
      gradientTransform="translate(-.605 -.596) scale(1.0714)" gradientUnits="userSpaceOnUse">
      <stop stop-color="#28aef1" offset="0" />
      <stop stop-color="#76e7ff" offset="1" />
    </linearGradient>
    <linearGradient id="linearGradient6" x1="4.465" x2="12.468" y1="8.4665" y2="8.4665" gradientUnits="userSpaceOnUse">
      <stop style="stop-color:#fff;stop-opacity:.74902" offset="0" />
      <stop style="stop-color:#fff" offset="1" />
    </linearGradient>
  </defs>
  <rect x=".529" y=".529" width="15.875" height="15.875" rx="7.937" ry="7.937" fill="url(#a)" />
  <path
    d="m8.466 4.429a2.0187 2.0188 0 0 0-2.0187 2.0187 2.0187 2.0188 0 0 0 2.0187 2.0187 2.0187 2.0188 0 0 0 2.0187-2.0187 2.0187 2.0188 0 0 0-2.0187-2.0187zm0 0.50469a1.5141 1.5141 0 0 1 1.5141 1.5141 1.5141 1.5141 0 0 1-1.5141 1.5141 1.5141 1.5141 0 0 1-1.5141-1.5141 1.5141 1.5141 0 0 1 1.5141-1.5141zm0 4.0375a4.0375 4.0375 0 0 0-4.001 3.5328h0.50863a3.5328 3.5328 0 0 1 3.4924-3.0281 3.5328 3.5328 0 0 1 3.4934 3.0281h0.50863a4.0375 4.0375 0 0 0-4.002-3.5328z"
    style="fill-rule:evenodd;fill:url(#linearGradient6)" />
</svg>