<svg version="1.1" viewBox="0 0 22 22" xmlns="http://www.w3.org/2000/svg">
 <defs>
  <style id="current-color-scheme" type="text/css">.ColorScheme-Text {
            color: #232629;
            }</style>
 </defs>
 <path class="ColorScheme-Text" d="m19 13.5c0.86032-0.04838 2-1.0252 2-2.5049 0-1.47-1.1397-2.4469-2-2.4951z" style="fill:currentColor"/>
 <path class="ColorScheme-Text" d="m4 4.5c-1.6568 0-3 1.3432-3 3v7c0 1.6568 1.3432 3 3 3h2.5039c-0.04125-0.227-0.0231-0.48191 0.07422-0.75586l2e-3 -0.0059 0.28321-0.73824h-2.7168c-0.90967-2.96e-4 -1.6468-0.68937-1.6465-1.5391v-6.9219c-3.55e-4 -0.84969 0.73682-1.5388 1.6465-1.5391h4.5898l1.166-1.5zm8.4746 0c0.04175 0.23568 0.02387 0.49425-0.06836 0.75391l-0.2832 0.74609h2.7305c0.90967 2.963e-4 1.6468 0.68937 1.6465 1.5391v6.9219c3.55e-4 0.84969-0.73682 1.5388-1.6465 1.5391h-4.5957l-1.1641 1.5h5.9062c1.6568 0 3-1.3432 3-3v-7c0-1.6568-1.3432-3-3-3z" style="fill:currentColor"/>
 <path class="ColorScheme-Text" transform="matrix(1.0692 0 0 1.0837 -19.552 -6.26)" d="m28.848 9.9297c0.10993-0.00737 0.28238 0.093466 0.17969 0.37891l-1.7793 4.6211h3.4551c0.12504 1.94e-4 0.21094 0.07927 0.21094 0.18359 0 0.05402-0.02964 0.13562-0.10352 0.21875l-0.0039 0.0059-5.0586 6.4297c-0.24439 0.29623-0.57762 0.15048-0.44336-0.22266l1.793-4.623h-3.4707c-0.12008-0.0086-0.19531-0.07839-0.19531-0.16992 0-0.05711 0.02308-0.13479 0.09961-0.23047l5.0664-6.4395c0.08817-0.11023 0.18445-0.14795 0.25-0.15234z" style="fill:currentColor"/>
 <path d="m4.0996 7c-0.3324 0-0.59961 0.26721-0.59961 0.59961v6.8008c0 0.3324 0.26721 0.59961 0.59961 0.59961h3.1465l0.73828-1.9277h-2.2952c-0.62665-0.02544-1.1758-0.47278-1.1758-1.1797 0-0.34217 0.13325-0.63018 0.32031-0.86719l3.0918-3.9805c-0.07-0.028295-0.14633-0.044921-0.22656-0.044921z" style="fill:#5ef377"/>
</svg>
