<svg version="1.1" viewBox="0 0 22 22" xmlns="http://www.w3.org/2000/svg" xmlns:xlink="http://www.w3.org/1999/xlink">
 <defs>
  <style id="current-color-scheme" type="text/css">.ColorScheme-Text {
            color: #232629;
            }</style>
  <linearGradient id="linearGradient22" x1="2" x2="46.54" y1="1028.4" y2="1031.1" gradientTransform="matrix(.22728 0 0 .22728 -22.227 -206.72)" gradientUnits="userSpaceOnUse" xlink:href="#linearGradient4160-4"/>
  <linearGradient id="linearGradient4160-4" x1="2" x2="46.54" y1="1028.4" y2="1031.1" gradientTransform="matrix(.22728 0 0 .22728 -22.227 -206.72)" gradientUnits="userSpaceOnUse">
   <stop stop-color="#ff7900" offset="0"/>
   <stop stop-color="#ffb500" offset="1"/>
  </linearGradient>
 </defs>
 <rect x="3.4996" y="7" width="1.2" height="8" ry=".6" style="fill:#f55"/>
 <path d="m4 4.5c-1.6568 0-3 1.3432-3 3v7c0 1.6568 1.3432 3 3 3h7.0996c-0.23687-0.46378-0.40811-0.96834-0.50586-1.5h-6.4473c-0.90967-2.96e-4 -1.6468-0.68937-1.6465-1.5391v-6.9219c-3.56e-4 -0.84969 0.73682-1.5388 1.6465-1.5391h10.707c0.90967 2.96e-4 1.6468 0.68937 1.6465 1.5391v1.9863c0.52312 0.04737 1.0269 0.16811 1.5 0.35352v-2.3789c0-1.6568-1.3432-3-3-3z" style="fill:#f55"/>
 <path d="m19 8.5v1.8906c0.70157 0.45748 1.2944 1.0719 1.7266 1.7969 0.16904-0.34347 0.27344-0.74418 0.27344-1.1914 0-1.47-1.1397-2.4478-2-2.4961z" style="fill:#f55"/>
 <g transform="translate(29 18.25)">
  <g transform="matrix(.8 0 0 .8 -35.419 -15.25)">
   <circle transform="rotate(-93.69)" cx="-16.772" cy="27.001" r="5" fill="url(#linearGradient4160-4)" style="fill:url(#linearGradient22);stroke-width:.83333"/>
   <path d="m28.022 12.274c-0.25103 0-0.45248 0.2015-0.45248 0.4525v3.1852c0 0.25108 0.20144 0.45242 0.45248 0.45242h0.0033c0.25103 0 0.45248-0.20133 0.45248-0.45242v-3.1852c0-0.251-0.20144-0.4525-0.45248-0.4525zm0.0017 5c-0.25182 0-0.4541 0.20233-0.4541 0.45417 0 0.25175 0.20228 0.45408 0.4541 0.45408s0.4541-0.20233 0.4541-0.45408c0-0.25183-0.20228-0.45417-0.4541-0.45417z" fill="#fff" style="stroke-width:.83333"/>
  </g>
 </g>
</svg>
