<svg version="1.1" viewBox="0 0 22 22" xmlns="http://www.w3.org/2000/svg">
 <defs>
  <style id="current-color-scheme" type="text/css">.ColorScheme-Text {
            color: #232629;
            }</style>
 </defs>
 <path class="ColorScheme-Text" d="m4 4.5c-1.6569 0-3 1.3431-3 3v7c0 1.6569 1.3431 3 3 3h11c1.6569 0 3-1.3431 3-3v-7c0-1.6569-1.3431-3-3-3zm0.14648 1.5h10.707c0.90967 2.96e-4 1.6468 0.68937 1.6465 1.5391v6.9219c3.55e-4 0.84969-0.73681 1.5388-1.6465 1.5391h-10.707c-0.90967-2.96e-4 -1.6468-0.68937-1.6465-1.5391v-6.9219c-3.56e-4 -0.84969 0.73681-1.5388 1.6465-1.5391z" style="fill:currentColor"/>
 <path class="ColorScheme-Text" d="m19 13.5c0.86032-0.04838 2-1.0252 2-2.5049 0-1.47-1.1397-2.4469-2-2.4951z" style="fill:currentColor"/>
 <path d="m9.5 8.1429c0.63466 0.0049 1.1425 0.51751 1.1425 1.1428 0 0.62831-0.51275 1.1429-1.1517 1.1429-0.3155 0-0.57125 0.25583-0.57125 0.57143v1.7143c0 0.3156 0.25575 0.57143 0.57125 0.57143s0.57125-0.25583 0.57125-0.57143v-1.2143c0.98909-0.25272 1.7229-1.1463 1.7229-2.2142 0-1.253-1.0102-2.266-2.2576-2.2854-6e-3 -2e-4 -0.01213-2.85e-4 -0.01822-2.85e-4h-0.01834c-0.0061 0-0.01213 8.5e-5 -0.01819 2.85e-4 -1.2474 0.01943-2.2576 1.0324-2.2576 2.2854 0 0.3156 0.25578 0.57143 0.57125 0.57143 0.3155 0 0.57125-0.25583 0.57125-0.57143 0-0.62531 0.50784-1.1379 1.1425-1.1428zm0 6.8571c0.3155 0 0.57125-0.25583 0.57125-0.57143 0-0.3156-0.25575-0.57143-0.57125-0.57143s-0.57125 0.25583-0.57125 0.57143c0 0.3156 0.25575 0.57143 0.57125 0.57143z" style="fill:#f55"/>
</svg>
