<svg version="1.1" viewBox="0 0 22 22" xmlns="http://www.w3.org/2000/svg">
 <defs>
  <style id="current-color-scheme" type="text/css">.ColorScheme-Text {
            color: #232629;
            }</style>
 </defs>
 <path class="ColorScheme-Text" d="m4 4.5c-1.6569 0-3 1.3431-3 3v7c0 1.6569 1.3431 3 3 3h11c1.6569 0 3-1.3431 3-3v-7c0-1.6569-1.3431-3-3-3zm0.14648 1.5h10.707c0.90967 2.96e-4 1.6468 0.68937 1.6465 1.5391v6.9219c3.55e-4 0.84969-0.73681 1.5388-1.6465 1.5391h-10.707c-0.90967-2.96e-4 -1.6468-0.68937-1.6465-1.5391v-6.9219c-3.56e-4 -0.84969 0.73681-1.5388 1.6465-1.5391z" style="fill:currentColor"/>
 <path class="ColorScheme-Text" d="m19 13.5c0.86032-0.04838 2-1.0252 2-2.5049 0-1.47-1.1397-2.4469-2-2.4951z" style="fill:currentColor"/>
 <rect class="ColorScheme-Text" x="3.5" y="7" width="8.4" height="8" ry=".6" style="fill:currentColor"/>
</svg>
