<?xml version="1.0" encoding="UTF-8"?>
<svg width="22" height="22" version="1.1" viewBox="0 0 22 22" xmlns="http://www.w3.org/2000/svg">
 <defs>
  <style id="current-color-scheme" type="text/css">.ColorScheme-Text {
        color: #232629;
      }</style>
 </defs>
 <g class="ColorScheme-Text" transform="matrix(1.0588 0 0 1.0588 -.64709 -.28962)" fill="currentColor" stroke-linecap="round" stroke-linejoin="round" stroke-width="1.5938">
  <path d="m6.2188 5.6875c-2.0602 0-3.7188 1.6586-3.7188 3.7188 0 1.8892 1.3943 3.439 3.2145 3.6835-0.016972-0.163-0.026978-0.32866-0.026978-0.49598 0-0.37917 0.04636-0.74769 0.13074-1.1019-0.98434-0.1864-1.7244-1.0454-1.7244-2.0856 0-1.1772 0.94775-2.125 2.125-2.125h5.3125c1.1772 0 2.125 0.94775 2.125 2.125s-0.94775 2.125-2.125 2.125h-1.0625c-0.60701 0-1.0625 0.45549-1.0625 1.0625 0 0.19688 0.049422 0.37662 0.13488 0.53125h1.9901c2.0602 0 3.7188-1.6586 3.7188-3.7188s-1.6586-3.7188-3.7188-3.7188z"/>
  <path d="m15.781 16.312c2.0602 0 3.7188-1.6586 3.7188-3.7188 0-1.8892-1.3943-3.439-3.2145-3.6835 0.01697 0.163 0.02698 0.32866 0.02698 0.49598 0 0.37917-0.04636 0.74769-0.13074 1.1019 0.98434 0.1864 1.7244 1.0454 1.7244 2.0856 0 1.1772-0.94775 2.125-2.125 2.125h-5.3125c-1.1772 0-2.125-0.94775-2.125-2.125s0.94775-2.125 2.125-2.125h1.0625c0.60701 0 1.0625-0.45549 1.0625-1.0625 0-0.19688-0.04942-0.37662-0.13488-0.53125h-1.9901c-2.0602 0-3.7187 1.6586-3.7187 3.7188s1.6586 3.7188 3.7187 3.7188z"/>
 </g>
</svg>
