<svg version="1.1" viewBox="0 0 22 22" xmlns="http://www.w3.org/2000/svg" xmlns:xlink="http://www.w3.org/1999/xlink">
 <defs>
  <style id="current-color-scheme" type="text/css">.ColorScheme-Text { color: #232629; }</style>
 </defs>
 <path class="ColorScheme-Text" transform="matrix(.97513 0 0 .98084 15.88 13.847)" d="m-5 0.40234c1.1146 0 2.1196 0.63414 2.6797 1.4219 0.061756 0.085371 0.045483 0.21091-0.029297 0.28906l-2.0996 2.2363c-0.33477 0.35222-0.45375 0.39453-0.55078 0.39453-0.087105 0-0.22621-0.053358-0.55078-0.39453l-2.0957-2.2324c-0.084976-0.094016-0.091962-0.19069-0.064453-0.23633 0.5489-0.82152 1.5729-1.4785 2.7109-1.4785z" style="fill:currentColor"/>
 <path class="ColorScheme-Text" transform="matrix(.97513 0 0 .98084 15.879 13.915)" d="m-5-5.1426c2.6103 0 4.9663 1.2497 6.2578 2.9805 0.068031 0.088559 0.061683 0.18242-0.019531 0.26758l-1.3477 1.4629c-0.098918 0.10948-0.16658 0.11066-0.24805 0.007813-1.111-1.3174-2.8578-2.2736-4.6406-2.2637-1.7756-0.00984-3.5246 0.92373-4.6113 2.2344-0.099942 0.12016-0.20191 0.12374-0.29102 0.029297l-1.3457-1.4688c-0.07989-0.088392-0.08311-0.1881-0.01758-0.27344 1.2893-1.7279 3.6447-2.9766 6.2637-2.9766z" style="fill:currentColor;opacity:.35"/>
 <path class="ColorScheme-Text" transform="matrix(.97513 0 0 .98084 15.879 14.038)" d="m-5.0078-10.744c3.9172 0 7.6817 1.9795 9.7012 4.7324 0.059827 0.078614 0.067314 0.19473-0.021484 0.29297l-1.2031 1.3379c-0.083941 0.097227-0.17561 0.09705-0.24414 0.021484-2.1567-2.5507-5.0163-3.8926-8.2324-3.8926-3.1908 0-6.0416 1.3412-8.209 3.875-0.09028 0.10894-0.18491 0.10684-0.26367 0.011719l-1.2051-1.3496c-0.0821-0.095616-0.0753-0.21716-0.01172-0.30078 2.0076-2.7578 5.7802-4.7285 9.6895-4.7285z" style="fill:currentColor;opacity:.35"/>
</svg>
