<?xml version="1.0" encoding="UTF-8"?>
<svg width="22" height="22" version="1.1" viewBox="0 0 22 22" xmlns="http://www.w3.org/2000/svg">
  <defs>
    <style id="current-color-scheme" type="text/css">
      .ColorScheme-Text {
        color: #232629;
      }
    </style>
  </defs>
  <defs>
    <linearGradient id="linearGradient1" x1="2" x2="46.54" y1="1028.4" y2="1031.1"
      gradientTransform="matrix(.22728 0 0 .22728 -25.116 -172.26)" gradientUnits="userSpaceOnUse">
      <stop stop-color="#06f" offset="0" />
      <stop stop-color="#5f8dd3" offset="1" />
    </linearGradient>
  </defs>
  <g class="ColorScheme-Text" fill="currentColor">
    <path stroke-width="1.0507"
      d="m10.047 14.277c-0.89389 0.24456-1.657 0.80735-2.1191 1.4707-0.10799 0.17063-0.053316 0.37988 0.099609 0.54102l2.2031 2.2363c0.35981 0.36021 0.5595 0.47461 0.7754 0.47461 0.13947 0 0.27276-0.05304 0.44531-0.18359-0.9022-1.0154-1.4512-2.3513-1.4512-3.8164 0-0.24507 0.01712-0.48566 0.04687-0.72266z" />
    <path stroke-width="1.0507"
      d="m11.004 8.6016c-2.8249 0-5.3876 1.2888-6.791 3.0801-0.15295 0.18959-0.13578 0.41754 0.035156 0.59766l1.4121 1.4688c0.21591 0.21806 0.50401 0.19983 0.71094-0.03711 1.0976-1.2607 2.8536-2.152 4.6348-2.1426 0.04294-2.27e-4 0.08602 0.0031 0.12891 0.0039 0.84161-1.1311 2.0895-1.9411 3.5273-2.2168-1.106-0.47452-2.3543-0.7539-3.6582-0.7539z" />
    <path stroke-width="1.0507"
      d="m10.996 3c-4.1836 0-8.2316 2.0094-10.391 4.834-0.14394 0.1801-0.14359 0.42759 0.027344 0.61719l1.2676 1.3535c0.18893 0.21797 0.48568 0.20988 0.68359-0.017578 2.2221-2.4741 5.1465-3.7832 8.4121-3.7832 3.2928 0 6.2262 1.3097 8.4395 3.8027 0.18895 0.19898 0.47705 0.18893 0.66602-0.019531l1.2578-1.3359c0.17995-0.18959 0.18102-0.43709 0.03711-0.61719-2.1682-2.815-6.2082-4.834-10.4-4.834z" />
  </g>
  <circle transform="rotate(-93.69)" cx="-15.983" cy="14.752" r="5" fill="url(#linearGradient4160-4)"
    style="fill:url(#linearGradient1);stroke-width:.83334" />
  <path
    d="m17.678 13.714-1.7134-1.7134h-0.42942v2.1403l-1.4113-1.4121-0.303 0.30301 1.7143 1.7143v0.50905l-1.7143 1.7143 0.303 0.30301 1.4113-1.4121v2.1403h0.42942l1.7134-1.7134v-0.0017l-1.2848-1.2848 1.2848-1.2848v-0.0017zm-0.60517 8.58e-4 -0.98184 0.98184-0.12723-0.12723v-1.9637zm0 2.5714-1.1091 1.1091v-1.9637l0.12723-0.12723 0.98184 0.98184z"
    style="fill:#fff;stroke-width:.42856" />
</svg>