<?xml version="1.0" encoding="UTF-8"?>
<svg width="22" height="22" version="1.1" viewBox="0 0 22 22" xml:space="preserve" xmlns="http://www.w3.org/2000/svg">
    <defs>
        <style id="current-color-scheme" type="text/css">
            .ColorScheme-Text {
                color: #232629;
            }
        </style>
    </defs>
    <g class="ColorScheme-Text" transform="matrix(1.0625 0 0 1.0625 -.6875 -.6875)" fill="currentColor">
        <rect x="5.639" y="5.532" width="10.722" height="10.936" fill-opacity=".35" style="isolation:isolate;stroke-width:.1386"/>
        <path d="m7 3v2c-1.108 0-2 0.892-2 2h-2v1h2v1h-2v1h2v2h-2v1h2v1h-2v1h2c0 1.108 0.892 2 2 2v2h1v-2h1v2h1v-2h2v2h1v-2h1v2h1v-2c1.108 0 2-0.892 2-2h2v-1h-2v-1h2v-1h-2v-2h2v-1h-2v-1h2v-1h-2c0-1.108-0.892-2-2-2v-2h-1v2h-1v-2h-1v2h-2v-2h-1v2h-1v-2zm0 3h8c0.554 0 1 0.446 1 1v8c0 0.554-0.446 1-1 1h-8c-0.554 0-1-0.446-1-1v-8c0-0.554 0.446-1 1-1z"/>
    </g>
</svg>
