<?xml version="1.0" encoding="UTF-8"?>
<svg width="22" height="22" version="1.1" viewBox="0 0 22 22" xml:space="preserve" xmlns="http://www.w3.org/2000/svg">
    <defs>
        <style id="current-color-scheme" type="text/css">
            .ColorScheme-Text {
                color: #232629;
            }
        </style>
    </defs>
    <g class="ColorScheme-Text" fill="currentColor">
        <path
            d="m7 3v2c-1.108 0-2 0.892-2 2h-2v1h2v1h-2v1h2v2h-2v1h2v1h-2v1h2c0 1.108 0.892 2 2 2v2h1v-2h1v2h1v-2h2v2h1v-2h1v2h1v-2c1.108 0 2-0.892 2-2h2v-1h-2v-1h2v-1h-2v-2h2v-1h-2v-1h2v-1h-2c0-1.108-0.892-2-2-2v-2h-1v2h-1v-2h-1v2h-2v-2h-1v2h-1v-2z"
            style="fill-opacity:.35" />
        <path
            d="m11.389 7.3018q0.51862 0 0.93275 0.126t0.68775 0.3205q0.27375 0.1945 0.47175 0.50775 0.19812 0.31325 0.3025 0.605 0.1045 0.29162 0.16212 0.70212 0.0575 0.41062 0.072 0.71312 0.01438 0.30238 0.01438 0.713v0.56175h-4.8902q0 0.38888 0.17638 0.77425 0.1765 0.38525 0.497 0.70575t0.84262 0.52212q0.52225 0.20175 1.156 0.20175 0.749 0 1.6205-0.25938l0.20888 0.80675q-1.1596 0.396-2.2759 0.396-0.78512 0-1.3936-0.20875-0.60862-0.20888-0.9795-0.54388-0.371-0.33488-0.60862-0.803t-0.32775-0.93262q-0.09-0.46462-0.09-0.98312 0-0.7995 0.1945-1.462 0.1945-0.66262 0.52575-1.1128t0.77425-0.75988q0.44288-0.30962 0.929-0.45012 0.48625-0.14038 0.9975-0.14038zm-0.252 1.0226q-0.63388 0-1.0911 0.34938-0.45738 0.34925-0.66625 0.86788-0.20888 0.5185-0.20888 1.1162h3.7164q0-2.3335-1.7501-2.3335z"
            style="isolation:isolate;stroke-width:.125" />
    </g>
</svg>