<?xml version="1.0" encoding="UTF-8"?>
<svg width="22" height="22" version="1.1" viewBox="0 0 22 22" xml:space="preserve" xmlns="http://www.w3.org/2000/svg">
    <defs>
        <style id="current-color-scheme" type="text/css">
            .ColorScheme-Text {
                color: #232629;
            }
        </style>
    </defs>
    <path class="ColorScheme-Text" d="m6.75 2.5v2.125c-1.1772 0-2.125 0.94775-2.125 2.125h-2.125v1.0625h2.125v1.0625h-2.125v1.0625h2.125v2.125h-2.125v1.0625h2.125v1.0625h-2.125v1.0625h2.125c0 1.1772 0.94775 2.125 2.125 2.125v2.125h1.0625v-2.125h1.0625v2.125h1.0625v-2.125h2.125v2.125h1.0625v-2.125h1.0625v2.125h1.0625v-2.125c1.1772 0 2.125-0.94775 2.125-2.125h2.125v-1.0625h-2.125v-1.0625h2.125v-1.0625h-2.125v-2.125h2.125v-1.0625h-2.125v-1.0625h2.125v-1.0625h-2.125c0-1.1772-0.94775-2.125-2.125-2.125v-2.125h-1.0625v2.125h-1.0625v-2.125h-1.0625v2.125h-2.125v-2.125h-1.0625v2.125h-1.0625v-2.125z" fill="currentColor" style="stroke-width:1.0625"/>
</svg>
