<?xml version="1.0" encoding="UTF-8"?>
<svg width="22" height="22" style="isolation:isolate" version="1.1" viewBox="0 0 22 22"
  xmlns="http://www.w3.org/2000/svg">
  <defs>
    <style id="current-color-scheme" type="text/css">
      .ColorScheme-Text {
        color: #232629;
      }
    </style>
  </defs>
  <path class="ColorScheme-Text"
    d="m13 3.9062v-0.40625c0-0.27613-0.22388-0.5-0.5-0.5h-3.5c-0.27612 0-0.5 0.22387-0.5 0.5v0.5c0 0.27613 0.22388 0.5 0.5 0.5h1.8162l-2.5687 2.9356c-0.1595 0.18212-0.24737 0.416-0.2475 0.65812v0.40625c0 0.27612 0.22388 0.5 0.5 0.5h3.5c0.27612 0 0.5-0.22388 0.5-0.5v-0.5c0-0.27612-0.22388-0.5-0.5-0.5h-1.8165l2.569-2.9356c0.1595-0.18213 0.24738-0.416 0.2475-0.65813zm-2.75 7.0938h-5.25c-0.27613 0-0.5 0.22388-0.5 0.5v1c0 0.27612 0.22387 0.5 0.5 0.5h3.1044l-3.8065 3.7519c-0.1905 0.18825-0.29775 0.44475-0.29787 0.7125v0.78562c0 0.41425 0.33575 0.75 0.75 0.75h5.75c0.27612 0 0.5-0.22388 0.5-0.5v-1c0-0.27612-0.22388-0.5-0.5-0.5h-3.6044l3.8066-3.7519c0.19038-0.18825 0.29763-0.44475 0.29775-0.7125v-0.78562c0-0.41425-0.33575-0.75-0.75-0.75zm7.25-1h-3.5c-0.27612 0-0.5 0.22388-0.5 0.5v0.5c0 0.27612 0.22388 0.5 0.5 0.5h1.8162l-2.5687 2.9356c-0.1595 0.18212-0.24738 0.416-0.2475 0.65812v0.40625c0 0.27612 0.22388 0.5 0.5 0.5h3.5c0.27612 0 0.5-0.22388 0.5-0.5v-0.5c0-0.27612-0.22388-0.5-0.5-0.5h-1.8165l2.569-2.9356c0.1595-0.18213 0.24738-0.416 0.2475-0.65813v-0.40625c0-0.27612-0.22388-0.5-0.5-0.5z"
    fill="currentColor" fill-opacity=".35" style="stroke-width:.125" />
</svg>