<?xml version="1.0" encoding="UTF-8"?>
<svg width="22" height="22" version="1.1" viewBox="0 0 22 22" xml:space="preserve" xmlns="http://www.w3.org/2000/svg">
    <defs>
        <style id="current-color-scheme" type="text/css">
            .ColorScheme-Text {
                color: #232629;
            }
        </style>
    </defs>
    <path class="ColorScheme-Text"
        d="m7 3v2c-1.108 0-2 0.892-2 2h-2v1h2v1h-2v1h2v2h-2v1h2v1h-2v1h2c0 1.108 0.892 2 2 2v2h1v-2h1v2h1v-2h2v2h1v-2h1v2h1v-2c1.108 0 2-0.892 2-2h2v-1h-2v-1h2v-1h-2v-2h2v-1h-2v-1h2v-1h-2c0-1.108-0.892-2-2-2v-2h-1v2h-1v-2h-1v2h-2v-2h-1v2h-1v-2z"
        fill="currentColor" style="fill-opacity:.35" />
</svg>