<?xml version="1.0" encoding="UTF-8"?>
<svg width="22" height="22" style="isolation:isolate" version="1.1" viewBox="0 0 22 22" xmlns="http://www.w3.org/2000/svg">
 <defs>
  <style id="current-color-scheme" type="text/css">.ColorScheme-Text {
        color: #232629;
      }</style>
 </defs>
 <path class="ColorScheme-Text" d="m13.125 3.4629v-0.43164c0-0.29339-0.23787-0.53125-0.53125-0.53125h-3.7187c-0.29338 0-0.53125 0.23786-0.53125 0.53125v0.53125c0 0.29339 0.23787 0.53125 0.53125 0.53125h1.9297l-2.7292 3.1191c-0.16947 0.1935-0.26283 0.442-0.26297 0.69925v0.43164c0 0.29338 0.23787 0.53125 0.53125 0.53125h3.7187c0.29338 0 0.53125-0.23787 0.53125-0.53125v-0.53125c0-0.29338-0.23787-0.53125-0.53125-0.53125h-1.93l2.7296-3.1191c0.16947-0.19351 0.26284-0.442 0.26297-0.69926zm-2.9219 7.5371h-5.5781c-0.29339 0-0.53125 0.23787-0.53125 0.53125v1.0625c0 0.29338 0.23786 0.53125 0.53125 0.53125h3.2984l-4.0444 3.9864c-0.20241 0.20002-0.31636 0.47254-0.31649 0.75703v0.83472c0 0.44014 0.35673 0.79687 0.79687 0.79687h6.1093c0.29338 0 0.53125-0.23787 0.53125-0.53125v-1.0625c0-0.29338-0.23787-0.53125-0.53125-0.53125h-3.8297l4.0445-3.9864c0.20228-0.20002 0.31623-0.47254 0.31636-0.75703v-0.83472c0-0.44014-0.35673-0.79687-0.79687-0.79687zm7.7031-1.0625h-3.7187c-0.29338 0-0.53125 0.23787-0.53125 0.53125v0.53125c0 0.29338 0.23787 0.53125 0.53125 0.53125h1.9297l-2.7292 3.1191c-0.16947 0.1935-0.26284 0.442-0.26297 0.69925v0.43164c0 0.29338 0.23787 0.53125 0.53125 0.53125h3.7187c0.29338 0 0.53125-0.23787 0.53125-0.53125v-0.53125c0-0.29338-0.23787-0.53125-0.53125-0.53125h-1.93l2.7296-3.1191c0.16947-0.19351 0.26284-0.442 0.26297-0.69926v-0.43164c0-0.29338-0.23787-0.53125-0.53125-0.53125z" fill="currentColor" fill-opacity=".35" style="stroke-width:.13281"/>
</svg>
