<?xml version="1.0" encoding="UTF-8"?>
<svg width="22" height="22" version="1.1" viewBox="0 0 22 22" xml:space="preserve" xmlns="http://www.w3.org/2000/svg">
    <defs>
        <style id="current-color-scheme" type="text/css">
            .ColorScheme-Text {
                color: #232629;
            }
        </style>
    </defs>
    <g class="ColorScheme-Text" fill="currentColor">
        <path
            d="m7 3v2c-1.108 0-2 0.892-2 2h-2v1h2v1h-2v1h2v2h-2v1h2v1h-2v1h2c0 1.108 0.892 2 2 2v2h1v-2h1v2h1v-2h2v2h1v-2h1v2h1v-2c1.108 0 2-0.892 2-2h2v-1h-2v-1h2v-1h-2v-2h2v-1h-2v-1h2v-1h-2c0-1.108-0.892-2-2-2v-2h-1v2h-1v-2h-1v2h-2v-2h-1v2h-1v-2z"
            style="fill-opacity:.35" />
        <path
            d="m11.694 14.672c0.73025 0 1.5324-0.18513 2.1495-0.48338l-0.29825-0.9565c-0.46288 0.17488-1.0388 0.27775-1.5324 0.27775-1.5632 0-2.5402-1.0285-2.5402-2.6328 0-1.5117 0.8845-2.3756 2.386-2.3756 0.56562 0 1.2135 0.11312 1.6762 0.29825l0.37025-1.0285c-0.60675-0.28788-1.3061-0.44225-2.0156-0.44225-2.2522 0-3.7949 1.4912-3.7949 3.7332 0 2.1596 1.4604 3.6098 3.5994 3.6098z"
            style="isolation:isolate;stroke-width:.125" />
    </g>
</svg>