<?xml version="1.0" encoding="UTF-8"?>
<svg width="22" height="22" version="1.1" viewBox="0 0 22 22" xmlns="http://www.w3.org/2000/svg">
 <defs>
  <style id="current-color-scheme" type="text/css">.ColorScheme-Text { color:#232629; } .ColorScheme-Highlight { color:#4285f4; }</style>
 </defs>
 <path class="ColorScheme-Text" d="m4.4545 3c-0.80582 0-1.4545 0.64873-1.4545 1.4545v3.6364c0 0.80582 0.64873 1.4545 1.4545 1.4545h3.6364c0.80582 0 1.4545-0.64873 1.4545-1.4545v-3.6364c0-0.80582-0.64873-1.4545-1.4545-1.4545zm9.4545 0c-0.80582 0-1.4545 0.64873-1.4545 1.4545v3.6364c0 0.80582 0.64873 1.4545 1.4545 1.4545h3.6364c0.80582 0 1.4545-0.64873 1.4545-1.4545v-3.6364c0-0.80582-0.64873-1.4545-1.4545-1.4545zm-9.4545 1.0909h3.6364c0.20146 0 0.36364 0.16218 0.36364 0.36364v3.6364c0 0.20146-0.16218 0.36364-0.36364 0.36364h-3.6364c-0.20145 0-0.36364-0.16218-0.36364-0.36364v-3.6364c0-0.20145 0.16218-0.36364 0.36364-0.36364zm9.4545 0h3.6364c0.20145 0 0.36364 0.16218 0.36364 0.36364v3.6364c0 0.20146-0.16218 0.36364-0.36364 0.36364h-3.6364c-0.20146 0-0.36364-0.16218-0.36364-0.36364v-3.6364c0-0.20145 0.16218-0.36364 0.36364-0.36364zm-9.4545 8.3636c-0.80582 0-1.4545 0.64873-1.4545 1.4545v3.6364c0 0.80582 0.64873 1.4545 1.4545 1.4545h3.6364c0.80582 0 1.4545-0.64873 1.4545-1.4545v-3.6364c0-0.80582-0.64873-1.4545-1.4545-1.4545zm9.4545 0c-0.80582 0-1.4545 0.64873-1.4545 1.4545v3.6364c0 0.80582 0.64873 1.4545 1.4545 1.4545h3.6364c0.80582 0 1.4545-0.64873 1.4545-1.4545v-3.6364c0-0.80582-0.64873-1.4545-1.4545-1.4545zm-9.4545 1.0909h3.6364c0.20146 0 0.36364 0.16218 0.36364 0.36364v3.6364c0 0.20145-0.16218 0.36364-0.36364 0.36364h-3.6364c-0.20145 0-0.36364-0.16218-0.36364-0.36364v-3.6364c0-0.20146 0.16218-0.36364 0.36364-0.36364zm9.4545 0h3.6364c0.20145 0 0.36364 0.16218 0.36364 0.36364v3.6364c0 0.20145-0.16218 0.36364-0.36364 0.36364h-3.6364c-0.20146 0-0.36364-0.16218-0.36364-0.36364v-3.6364c0-0.20146 0.16218-0.36364 0.36364-0.36364z" fill="currentColor" style="stroke-width:.72727"/>
</svg>
