<?xml version="1.0" encoding="UTF-8" standalone="no"?>
<svg
   width="64"
   height="64"
   version="1.1"
   viewBox="0 0 16.933 16.933"
   id="svg7"
   sodipodi:docname="media-dvd.svg"
   inkscape:version="1.3.2 (091e20ef0f, 2023-11-25, custom)"
   xmlns:inkscape="http://www.inkscape.org/namespaces/inkscape"
   xmlns:sodipodi="http://sodipodi.sourceforge.net/DTD/sodipodi-0.dtd"
   xmlns:xlink="http://www.w3.org/1999/xlink"
   xmlns="http://www.w3.org/2000/svg"
   xmlns:svg="http://www.w3.org/2000/svg">
  <sodipodi:namedview
     id="namedview7"
     pagecolor="#505050"
     bordercolor="#eeeeee"
     borderopacity="1"
     inkscape:showpageshadow="0"
     inkscape:pageopacity="0"
     inkscape:pagecheckerboard="0"
     inkscape:deskcolor="#505050"
     inkscape:zoom="6.5407104"
     inkscape:cx="16.741301"
     inkscape:cy="34.782154"
     inkscape:window-width="1920"
     inkscape:window-height="968"
     inkscape:window-x="0"
     inkscape:window-y="0"
     inkscape:window-maximized="1"
     inkscape:current-layer="svg7" />
  <defs
     id="defs3">
    <linearGradient
       id="linearGradient943"
       x1="-1129.7"
       x2="-1106.6"
       y1="944.53"
       y2="962.74"
       gradientTransform="matrix(0 .45356 .45358 0 -424.15 515.54)"
       gradientUnits="userSpaceOnUse">
      <stop
         stop-color="#BFBFBF"
         offset="0"
         id="stop1" />
      <stop
         stop-color="#fff"
         offset=".5"
         id="stop2" />
      <stop
         stop-color="#BFBFBF"
         offset="1"
         id="stop3" />
    </linearGradient>
    <linearGradient
       inkscape:collect="always"
       id="linearGradient3862"
       xlink:href="#linearGradient4351-5"
       y1="540.79797"
       y2="506.798"
       x2="0"
       gradientUnits="userSpaceOnUse"
       gradientTransform="matrix(0.16161889,0,0,0.16161889,-46.983222,-69.045611)" />
    <linearGradient
       inkscape:collect="always"
       id="linearGradient4351-5">
      <stop
         style="stop-color:#d3bdd7"
         id="stop4353-6" />
      <stop
         offset="1"
         style="stop-color:#dcc6e0"
         id="stop4355-6" />
    </linearGradient>
    <linearGradient
       inkscape:collect="always"
       id="linearGradient4372"
       xlink:href="#linearGradient4227"
       y1="523.79797"
       y2="537.79797"
       x1="408.5715"
       gradientUnits="userSpaceOnUse"
       x2="422.57147"
       gradientTransform="matrix(0.3968297,0,0,0.39686366,-143.08362,-192.26633)" />
    <linearGradient
       inkscape:collect="always"
       id="linearGradient4227">
      <stop
         style="stop-color:#292c2f"
         id="stop4229" />
      <stop
         offset="1"
         style="stop-opacity:0"
         id="stop4231" />
    </linearGradient>
    <linearGradient
       inkscape:collect="always"
       id="linearGradient3834"
       xlink:href="#linearGradient4300-9"
       y1="540.79797"
       y2="506.798"
       x2="0"
       gradientUnits="userSpaceOnUse"
       gradientTransform="matrix(0.46685855,0,0,0.46689849,-171.69541,-228.95045)" />
    <linearGradient
       inkscape:collect="always"
       id="linearGradient4300-9">
      <stop
         style="stop-color:#8e44ad"
         id="stop4302-6" />
      <stop
         offset="1"
         style="stop-color:#9b59b6"
         id="stop4304-0" />
    </linearGradient>
  </defs>
  <g
     id="g7"
     transform="translate(-10.583136,-7.143544)">
    <path
       style="fill:url(#linearGradient3834);stroke-width:0.30528"
       id="rect4146"
       d="m 19.049635,7.672771 c -4.396867,0 -7.936676,3.54003 -7.936676,7.937273 0,4.397243 3.539809,7.937273 7.936676,7.937273 4.396869,0 7.936678,-3.54003 7.936678,-7.937273 0,-4.397243 -3.539809,-7.937273 -7.936678,-7.937273 z m 0,7.021434 c 0.507376,0 0.91584,0.408464 0.91584,0.915839 0,0.507375 -0.408464,0.91584 -0.91584,0.91584 -0.507374,0 -0.915838,-0.408465 -0.915838,-0.91584 0,-0.507375 0.408464,-0.915839 0.915838,-0.915839 z" />
    <path
       style="opacity:0.2;fill:url(#linearGradient4372);fill-rule:evenodd;stroke-width:0.30528"
       id="path4364"
       d="m 20.919474,13.587566 -0.169335,0.269505 a 2.4422379,2.4422379 0 0 1 0.741734,1.752973 2.4422379,2.4422379 0 0 1 -2.442238,2.442238 2.4422379,2.4422379 0 0 1 -1.932444,-0.953403 l -0.290373,0.152044 5.484303,5.589243 c 1.761506,-0.793017 3.175073,-2.206962 3.968039,-3.968637 z m -0.335688,0.534836 -0.698805,1.11439 c 0.05087,0.114126 0.08049,0.239816 0.08049,0.373252 0,0.507375 -0.408465,0.91584 -0.91584,0.91584 -0.195925,0 -0.376096,-0.06236 -0.524699,-0.166354 l -1.134662,0.595652 a 2.1369581,2.1369581 0 0 0 1.659361,0.79182 2.1369581,2.1369581 0 0 0 2.136958,-2.136958 2.1369581,2.1369581 0 0 0 -0.602807,-1.487642 z" />
    <path
       style="fill:url(#linearGradient3862);stroke-width:0.30528"
       id="rect4270"
       d="m 19.049635,12.862526 c -1.522124,0 -2.747517,1.225394 -2.747517,2.747518 0,1.522125 1.225393,2.747518 2.747517,2.747518 1.522126,0 2.747519,-1.225393 2.747519,-2.747518 0,-1.522124 -1.225393,-2.747518 -2.747519,-2.747518 z m 0,0.30528 a 2.4422379,2.4422379 0 0 1 2.442238,2.442238 2.4422379,2.4422379 0 0 1 -2.442238,2.442238 2.4422379,2.4422379 0 0 1 -2.442238,-2.442238 2.4422379,2.4422379 0 0 1 2.442238,-2.442238 z m 0,0.30528 a 2.1369581,2.1369581 0 0 0 -2.136957,2.136958 2.1369581,2.1369581 0 0 0 2.136957,2.136958 2.1369581,2.1369581 0 0 0 2.136959,-2.136958 2.1369581,2.1369581 0 0 0 -2.136959,-2.136958 z m 0,1.221119 c 0.507376,0 0.91584,0.408464 0.91584,0.915839 0,0.507375 -0.408464,0.91584 -0.91584,0.91584 -0.507374,0 -0.915838,-0.408465 -0.915838,-0.91584 0,-0.507375 0.408464,-0.915839 0.915838,-0.915839 z" />
    <path
       inkscape:connector-curvature="0"
       style="fill:#2e3132;fill-opacity:0.294118;stroke-width:0.30528"
       id="rect4284"
       d="m 11.112959,15.363197 c -0.0015,0.06647 0,0.132835 0,0.199744 0,4.42327 3.539803,7.984376 7.936676,7.984376 4.396874,0 7.936678,-3.561106 7.936678,-7.984376 0,-0.06691 0.0015,-0.133273 0,-0.199744 -0.105034,4.329895 -3.606425,7.87884 -7.936678,7.87884 -4.330251,0 -7.831647,-3.548945 -7.936676,-7.87884 z" />
    <path
       style="fill:#2e3132;fill-opacity:0.294118;stroke-width:0.30528;stroke-linecap:round"
       id="path4558"
       d="m 19.049635,13.167806 a 2.4422379,2.4422379 0 0 0 -2.442238,2.442238 2.4422379,2.4422379 0 0 0 2.442238,2.442238 2.4422379,2.4422379 0 0 0 2.442238,-2.442238 2.4422379,2.4422379 0 0 0 -2.442238,-2.442238 z m 0,0.30528 a 2.1369581,2.1369581 0 0 1 2.136959,2.136958 2.1369581,2.1369581 0 0 1 -2.136959,2.136958 2.1369581,2.1369581 0 0 1 -2.136957,-2.136958 2.1369581,2.1369581 0 0 1 2.136957,-2.136958 z" />
  </g>
</svg>
