<?xml version="1.0" encoding="UTF-8"?>
<svg width="64" height="64" version="1.1" xmlns="http://www.w3.org/2000/svg" xmlns:xlink="http://www.w3.org/1999/xlink">
 <defs>
  <linearGradient id="B" x1="-592.82" x2="-592.82" y1="58" y2="6" xlink:href="#E"/>
  <linearGradient id="E" gradientUnits="userSpaceOnUse">
   <stop stop-color="#bdc3c7" offset="0"/>
   <stop stop-color="#dadfe1" offset="1"/>
  </linearGradient>
  <linearGradient id="A" x1="32" x2="50.199" y1="32" y2="50.2" gradientUnits="userSpaceOnUse">
   <stop stop-color="#292c2f" offset="0"/>
   <stop stop-opacity="0" offset="1"/>
  </linearGradient>
  <linearGradient id="C" x1="-184.3" x2="-184.3" y1="41" y2="23" xlink:href="#F"/>
  <linearGradient id="F" gradientUnits="userSpaceOnUse">
   <stop stop-color="#566472" offset="0"/>
   <stop stop-color="#6c7a89" offset="1"/>
  </linearGradient>
  <linearGradient id="D" x1="414.57" x2="434.57" y1="-618.95" y2="-618.95" xlink:href="#F"/>
  <linearGradient id="G" x1="-.001" x2="-.001" y1="545.79" y2="533.79" xlink:href="#E"/>
 </defs>
 <g transform="matrix(1.1539 0 0 1.1538 -439.45 -572.38)">
  <g transform="translate(376.57 491.8)">
   <path d="m32 6c-14.403 0-25.998 11.596-25.998 26s11.595 26 25.998 26 25.998-11.596 25.998-26-11.595-26-25.998-26zm0 23c1.662 0 3 1.338 3 3s-1.338 3-3 3-3-1.338-3-3 1.338-3 3-3z" fill="url(#B)" style="fill:url(#B)"/>
   <path d="m38.125 25.375-0.555 0.883a8 8 0 0 1-5.57 13.742 8 8 0 0 1-6.33-3.123l-0.951 0.498 17.965 18.309c5.77-2.598 10.401-7.229 12.998-13zm-1.1 1.752-2.289 3.65a2.99 2.99 0 0 1 0.264 1.223c0 1.662-1.338 3-3 3-0.642 0-1.232-0.204-1.719-0.545l-3.717 1.951a7 7 0 0 0 12.436-4.406 7 7 0 0 0-1.975-4.873z" fill="url(#A)" fill-rule="evenodd" opacity=".2" style="fill:url(#A)"/>
   <path d="m32 23a8.98 8.98 0 0 0-9 9 8.98 8.98 0 0 0 9 9 8.98 8.98 0 0 0 9-9 8.98 8.98 0 0 0-9-9zm0 1a8 8 0 1 1 0 16 8 8 0 1 1 0-16zm0 1a7 7 0 1 0 0 14 7 7 0 1 0 0-14zm0 4c1.662 0 3 1.338 3 3s-1.338 3-3 3-3-1.338-3-3 1.338-3 3-3z" fill="url(#C)" style="fill:url(#C)"/>
  </g>
  <path d="m382.57 522.99v0.654c0 14.489 11.595 26.154 25.998 26.154s25.998-11.665 25.998-26.154v-0.654c-0.344 14.183-11.814 25.809-25.998 25.809s-25.654-11.625-25.998-25.809zm25.998-7.191a8 8 0 1 0 0 16 8 8 0 1 0 0-16zm0 1a7 7 0 1 1 0 14 7 7 0 1 1 0-14z" fill="#2e3132" fill-opacity=".294"/>
  <circle cx="424.57" cy="507.8" r="10" fill="url(#D)" style="fill:url(#D)"/>
  <path d="m421.38 501.8a4.01 4.01 0 0 1 3.191 3.945 4.018 4.018 0 0 1-1.285 2.95 3.01 3.01 0 0 1-0.715-1.943c0-0.165 0.026-0.323 0.051-0.48a4.01 4.01 0 0 0-2.05 3.5c0 2.232 1.783 4.028 4 4.028s4-1.796 4-4.028a7.986 7.986 0 0 0-7.192-7.972z" fill="url(#G)" fill-rule="evenodd" style="fill:url(#G)"/>
 </g>
</svg>
