<?xml version="1.0" encoding="UTF-8" standalone="no"?>
<svg
   width="64"
   height="64"
   version="1.1"
   viewBox="0 0 16.933 16.933"
   id="svg6"
   sodipodi:docname="media-optical.svg"
   inkscape:version="1.3.2 (091e20ef0f, 2023-11-25, custom)"
   xmlns:inkscape="http://www.inkscape.org/namespaces/inkscape"
   xmlns:sodipodi="http://sodipodi.sourceforge.net/DTD/sodipodi-0.dtd"
   xmlns:xlink="http://www.w3.org/1999/xlink"
   xmlns="http://www.w3.org/2000/svg"
   xmlns:svg="http://www.w3.org/2000/svg">
  <sodipodi:namedview
     id="namedview6"
     pagecolor="#505050"
     bordercolor="#eeeeee"
     borderopacity="1"
     inkscape:showpageshadow="0"
     inkscape:pageopacity="0"
     inkscape:pagecheckerboard="0"
     inkscape:deskcolor="#505050"
     inkscape:zoom="11.390625"
     inkscape:cx="32"
     inkscape:cy="32"
     inkscape:window-width="1920"
     inkscape:window-height="968"
     inkscape:window-x="0"
     inkscape:window-y="0"
     inkscape:window-maximized="1"
     inkscape:current-layer="svg6" />
  <defs
     id="defs3">
    <linearGradient
       id="linearGradient943"
       x1="-1129.7"
       x2="-1106.6"
       y1="944.53"
       y2="962.74"
       gradientTransform="matrix(0 .45356 .45358 0 -424.15 515.54)"
       gradientUnits="userSpaceOnUse">
      <stop
         stop-color="#BFBFBF"
         offset="0"
         id="stop1" />
      <stop
         stop-color="#fff"
         offset=".5"
         id="stop2" />
      <stop
         stop-color="#BFBFBF"
         offset="1"
         id="stop3" />
    </linearGradient>
    <linearGradient
       inkscape:collect="always"
       id="linearGradient3862"
       xlink:href="#linearGradient4351-8"
       y1="540.79797"
       y2="506.798"
       x2="0"
       gradientUnits="userSpaceOnUse"
       gradientTransform="matrix(0.14007095,0,0,0.14007095,-39.766757,-59.081664)" />
    <linearGradient
       inkscape:collect="always"
       id="linearGradient4351-8">
      <stop
         style="stop-color:#dedede"
         id="stop4353-5" />
      <stop
         offset="1"
         style="stop-color:#ececec"
         id="stop4355-8" />
    </linearGradient>
    <linearGradient
       inkscape:collect="always"
       id="linearGradient4372"
       xlink:href="#linearGradient4227"
       y1="523.79797"
       y2="537.79797"
       x1="408.5715"
       gradientUnits="userSpaceOnUse"
       x2="422.57147"
       gradientTransform="matrix(0.34392213,0,0,0.34395156,-123.0545,-165.8739)" />
    <linearGradient
       inkscape:collect="always"
       id="linearGradient4227">
      <stop
         style="stop-color:#292c2f"
         id="stop4229" />
      <stop
         offset="1"
         style="stop-opacity:0"
         id="stop4231" />
    </linearGradient>
    <linearGradient
       inkscape:collect="always"
       id="linearGradient3834"
       xlink:href="#linearGradient4300-7"
       y1="540.79797"
       y2="506.798"
       x2="0"
       gradientUnits="userSpaceOnUse"
       gradientTransform="matrix(0.40461434,0,0,0.40464895,-147.85161,-197.66709)" />
    <linearGradient
       inkscape:collect="always"
       id="linearGradient4300-7">
      <stop
         style="stop-color:#6c7a89"
         id="stop4302-2" />
      <stop
         offset="1"
         style="stop-color:#768492"
         id="stop4304-4" />
    </linearGradient>
  </defs>
  <g
     id="g6"
     transform="matrix(1.1538359,0,0,1.1538462,-11.682046,-8.0187568)">
    <path
       style="fill:url(#linearGradient3834);stroke-width:0.264578"
       id="rect4146"
       d="m 17.462228,7.408191 c -3.810652,0 -6.878514,3.068053 -6.878514,6.879031 0,3.810978 3.067862,6.879031 6.878514,6.879031 3.810653,0 6.878515,-3.068053 6.878515,-6.879031 0,-3.810978 -3.067862,-6.879031 -6.878515,-6.879031 z m 0,6.085297 c 0.439729,0 0.793735,0.354005 0.793735,0.793734 0,0.439729 -0.354006,0.793735 -0.793735,0.793735 -0.439728,0 -0.793734,-0.354006 -0.793734,-0.793735 0,-0.439729 0.354006,-0.793734 0.793734,-0.793734 z" />
    <path
       style="opacity:0.2;fill:url(#linearGradient4372);fill-rule:evenodd;stroke-width:0.264578"
       id="path4364"
       d="m 19.082769,12.534392 -0.146758,0.233573 a 2.116625,2.116625 0 0 1 0.642842,1.519257 2.116625,2.116625 0 0 1 -2.116625,2.116625 2.116625,2.116625 0 0 1 -1.6748,-0.82629 l -0.251659,0.131773 4.753105,4.844053 c 1.526652,-0.687287 2.751754,-1.912717 3.438998,-3.439516 z m -0.290932,0.463529 -0.605636,0.965813 c 0.04409,0.09891 0.06976,0.207842 0.06976,0.323488 0,0.439729 -0.354006,0.793735 -0.793735,0.793735 -0.169803,0 -0.325953,-0.05405 -0.454743,-0.144175 L 16.0241,15.453019 a 1.8520468,1.8520468 0 0 0 1.438126,0.68625 1.8520468,1.8520468 0 0 0 1.852047,-1.852047 1.8520468,1.8520468 0 0 0 -0.522438,-1.289301 z" />
    <path
       style="fill:url(#linearGradient3862);stroke-width:0.264578"
       id="rect4270"
       d="m 17.462228,11.906019 c -1.319186,0 -2.381203,1.062017 -2.381203,2.381203 0,1.319187 1.062017,2.381203 2.381203,2.381203 1.319187,0 2.381204,-1.062016 2.381204,-2.381203 0,-1.319186 -1.062017,-2.381203 -2.381204,-2.381203 z m 0,0.264578 a 2.116625,2.116625 0 0 1 2.116625,2.116625 2.116625,2.116625 0 0 1 -2.116625,2.116625 2.116625,2.116625 0 0 1 -2.116625,-2.116625 2.116625,2.116625 0 0 1 2.116625,-2.116625 z m 0,0.264578 a 1.8520468,1.8520468 0 0 0 -1.852046,1.852047 1.8520468,1.8520468 0 0 0 1.852046,1.852047 1.8520468,1.8520468 0 0 0 1.852047,-1.852047 1.8520468,1.8520468 0 0 0 -1.852047,-1.852047 z m 0,1.058313 c 0.439729,0 0.793735,0.354005 0.793735,0.793734 0,0.439729 -0.354006,0.793735 -0.793735,0.793735 -0.439728,0 -0.793734,-0.354006 -0.793734,-0.793735 0,-0.439729 0.354006,-0.793734 0.793734,-0.793734 z" />
    <path
       inkscape:connector-curvature="0"
       style="fill:#2e3132;fill-opacity:0.294118;stroke-width:0.264578"
       id="rect4284"
       d="m 10.583714,14.073286 c -0.0013,0.05761 0,0.115125 0,0.173113 0,3.833535 3.067857,6.919854 6.878514,6.919854 3.810658,0 6.878515,-3.086319 6.878515,-6.919854 0,-0.05799 0.0013,-0.115504 0,-0.173113 -0.09103,3.752609 -3.125596,6.828389 -6.878515,6.828389 -3.752918,0 -6.787488,-3.07578 -6.878514,-6.828389 z" />
    <path
       style="fill:#2e3132;fill-opacity:0.294118;stroke-width:0.264578;stroke-linecap:round"
       id="path4558"
       d="m 17.462228,12.170597 a 2.116625,2.116625 0 0 0 -2.116625,2.116625 2.116625,2.116625 0 0 0 2.116625,2.116625 2.116625,2.116625 0 0 0 2.116625,-2.116625 2.116625,2.116625 0 0 0 -2.116625,-2.116625 z m 0,0.264578 a 1.8520468,1.8520468 0 0 1 1.852047,1.852047 1.8520468,1.8520468 0 0 1 -1.852047,1.852047 1.8520468,1.8520468 0 0 1 -1.852046,-1.852047 1.8520468,1.8520468 0 0 1 1.852046,-1.852047 z" />
  </g>
</svg>
