<?xml version="1.0" encoding="UTF-8"?>
<svg width="64" height="64" version="1.1" xmlns="http://www.w3.org/2000/svg" xmlns:xlink="http://www.w3.org/1999/xlink">
 <defs>
  <linearGradient id="linearGradient4372" x1="408.57" x2="422.57" y1="523.8" y2="537.8" gradientTransform="matrix(1.4999 0 0 1.5 -200.23 -257.89)" gradientUnits="userSpaceOnUse">
   <stop style="stop-color:#292c2f" offset="0"/>
   <stop style="stop-opacity:0" offset="1"/>
  </linearGradient>
  <linearGradient id="linearGradient3834" x2="0" y1="540.8" y2="506.8" gradientTransform="matrix(1.7645 0 0 1.7647 -308.37 -396.54)" gradientUnits="userSpaceOnUse">
   <stop style="stop-color:#8e44ad" offset="0"/>
   <stop style="stop-color:#9b59b6" offset="1"/>
  </linearGradient>
  <linearGradient id="linearGradient3862" x2="0" y1="540.8" y2="506.8" gradientTransform="matrix(.61085 0 0 .61085 162.99 207.83)" gradientUnits="userSpaceOnUse">
   <stop style="stop-color:#d3bdd7" offset="0"/>
   <stop style="stop-color:#dcc6e0" offset="1"/>
  </linearGradient>
 </defs>
 <g transform="translate(-376.57 -491.8)">
  <g transform="translate(-3.9997 -3.9997)">
   <path d="m412.57 497.8c-16.618 0-29.997 13.38-29.997 30 0 16.62 13.379 30 29.997 30 16.618 0 29.997-13.38 29.997-30 0-16.62-13.379-30-29.997-30zm0 26.538c1.9177 0 3.4615 1.5438 3.4615 3.4615s-1.5438 3.4615-3.4615 3.4615-3.4615-1.5438-3.4615-3.4615 1.5438-3.4615 3.4615-3.4615z" style="fill:url(#linearGradient3834);stroke-width:1.1538"/>
   <path d="m419.64 520.15-0.64002 1.0186a9.2307 9.2307 0 0 1 2.8034 6.6255 9.2307 9.2307 0 0 1-9.2307 9.2307 9.2307 9.2307 0 0 1-7.3039-3.6035l-1.0975 0.57467 20.728 21.125c6.6578-2.9973 12-8.3414 14.998-15zm-1.2688 2.0215-2.6412 4.212c0.19228 0.43134 0.30423 0.9064 0.30423 1.4107 0 1.9177-1.5438 3.4615-3.4615 3.4615-0.74052 0-1.4215-0.2357-1.9832-0.62875l-4.2886 2.2513a8.0768 8.0768 0 0 0 6.2717 2.9928 8.0768 8.0768 0 0 0 8.0768-8.0768 8.0768 8.0768 0 0 0-2.2784-5.6227z" style="fill-rule:evenodd;fill:url(#linearGradient4372);opacity:.2;stroke-width:1.1538"/>
   <path d="m412.57 517.41c-5.753 0-10.385 4.6315-10.385 10.385s4.6315 10.385 10.385 10.385 10.385-4.6315 10.385-10.385-4.6315-10.385-10.385-10.385zm0 1.1538a9.2307 9.2307 0 0 1 9.2307 9.2307 9.2307 9.2307 0 0 1-9.2307 9.2307 9.2307 9.2307 0 0 1-9.2307-9.2307 9.2307 9.2307 0 0 1 9.2307-9.2307zm0 1.1538a8.0768 8.0768 0 0 0-8.0768 8.0768 8.0768 8.0768 0 0 0 8.0768 8.0768 8.0768 8.0768 0 0 0 8.0768-8.0768 8.0768 8.0768 0 0 0-8.0768-8.0768zm0 4.6153c1.9177 0 3.4615 1.5438 3.4615 3.4615s-1.5438 3.4615-3.4615 3.4615-3.4615-1.5438-3.4615-3.4615 1.5438-3.4615 3.4615-3.4615z" style="fill:url(#linearGradient3862);stroke-width:1.1538"/>
   <path d="m382.57 526.86c-6e-3 0.25123 0 0.50206 0 0.75495 0 16.718 13.379 30.178 29.997 30.178s29.997-13.46 29.997-30.178c0-0.25289 6e-3 -0.50372 0-0.75495-0.39697 16.365-13.631 29.779-29.997 29.779s-29.6-13.414-29.997-29.779z" style="fill-opacity:.29412;fill:#2e3132;stroke-width:1.1538"/>
   <path d="m412.57 518.57a9.2307 9.2307 0 0 0-9.2307 9.2307 9.2307 9.2307 0 0 0 9.2307 9.2307 9.2307 9.2307 0 0 0 9.2307-9.2307 9.2307 9.2307 0 0 0-9.2307-9.2307zm0 1.1538a8.0768 8.0768 0 0 1 8.0768 8.0768 8.0768 8.0768 0 0 1-8.0768 8.0768 8.0768 8.0768 0 0 1-8.0768-8.0768 8.0768 8.0768 0 0 1 8.0768-8.0768z" style="fill-opacity:.29412;fill:#2e3132;stroke-linecap:round;stroke-width:1.1538"/>
  </g>
 </g>
</svg>
