<?xml version="1.0" encoding="UTF-8" standalone="no"?>
<svg
   width="64"
   height="64"
   version="1.1"
   id="svg7"
   sodipodi:docname="media-write-dvd.svg"
   inkscape:version="1.3.2 (091e20ef0f, 2023-11-25, custom)"
   xmlns:inkscape="http://www.inkscape.org/namespaces/inkscape"
   xmlns:sodipodi="http://sodipodi.sourceforge.net/DTD/sodipodi-0.dtd"
   xmlns:xlink="http://www.w3.org/1999/xlink"
   xmlns="http://www.w3.org/2000/svg"
   xmlns:svg="http://www.w3.org/2000/svg">
  <sodipodi:namedview
     id="namedview7"
     pagecolor="#505050"
     bordercolor="#eeeeee"
     borderopacity="1"
     inkscape:showpageshadow="0"
     inkscape:pageopacity="0"
     inkscape:pagecheckerboard="0"
     inkscape:deskcolor="#505050"
     inkscape:zoom="6.1402588"
     inkscape:cx="-0.73286813"
     inkscape:cy="35.584819"
     inkscape:window-width="1920"
     inkscape:window-height="968"
     inkscape:window-x="0"
     inkscape:window-y="0"
     inkscape:window-maximized="1"
     inkscape:current-layer="svg7" />
  <defs
     id="defs3">
    <linearGradient
       id="linearGradient943"
       x1="-1129.7"
       x2="-1106.6"
       y1="944.53"
       y2="962.74"
       gradientTransform="matrix(0 1.7143 1.7144 0 -1603.1 1948.5)"
       gradientUnits="userSpaceOnUse">
      <stop
         stop-color="#BFBFBF"
         offset="0"
         id="stop1" />
      <stop
         stop-color="#fff"
         offset=".5"
         id="stop2" />
      <stop
         stop-color="#BFBFBF"
         offset="1"
         id="stop3" />
    </linearGradient>
    <linearGradient
       id="C"
       y1="41"
       y2="23"
       x2="-184.30299"
       x1="-184.30299"
       gradientUnits="userSpaceOnUse">
      <stop
         stop-color="#d3bdd7"
         id="stop5" />
      <stop
         offset="1"
         stop-color="#dcc6e0"
         id="stop6" />
    </linearGradient>
    <linearGradient
       id="A"
       y1="32"
       y2="50.200001"
       x1="32"
       x2="50.199001"
       gradientUnits="userSpaceOnUse"
       gradientTransform="matrix(1.1538892,0,0,1.1538892,-84.980159,-12.894657)">
      <stop
         stop-color="#292c2f"
         id="stop3-7" />
      <stop
         offset="1"
         stop-opacity="0"
         id="stop4" />
    </linearGradient>
    <linearGradient
       id="B"
       y1="58"
       y2="6"
       x2="-592.82098"
       x1="-592.82098"
       gradientUnits="userSpaceOnUse"
       gradientTransform="matrix(1.1538892,0,0,1.1538892,-84.980159,-12.894657)">
      <stop
         stop-color="#8e44ad"
         id="stop7" />
      <stop
         offset="1"
         stop-color="#9b59b6"
         id="stop8" />
    </linearGradient>
    <linearGradient
       inkscape:collect="always"
       xlink:href="#C"
       id="linearGradient8"
       gradientUnits="userSpaceOnUse"
       x1="-184.30299"
       y1="41"
       x2="-184.30299"
       y2="23"
       gradientTransform="matrix(1.1538892,0,0,1.1538892,-519.50137,-580.37506)" />
    <linearGradient
       inkscape:collect="always"
       xlink:href="#C"
       id="linearGradient7"
       gradientUnits="userSpaceOnUse"
       x1="-184.30299"
       y1="41"
       x2="-184.30299"
       y2="23"
       gradientTransform="matrix(1.1538892,0,0,1.1538892,-84.980159,-12.894657)" />
  </defs>
  <g
     id="g7"
     transform="translate(80.054591,7.9702026)">
    <path
       d="M -48.055704,-5.9713222 A 29.934194,29.934194 0 0 0 -78.054516,24.029797 c 0,16.620621 13.379345,30.00112 29.998812,30.00112 a 29.934194,29.934194 0 0 0 29.998811,-30.00112 c 0,-16.6206192 -13.379345,-30.0011192 -29.998811,-30.0011192 z m 0,26.5394522 c 1.917763,0 3.461667,1.543904 3.461667,3.461667 0,1.917764 -1.543904,3.461668 -3.461667,3.461668 -1.917764,0 -3.461668,-1.543904 -3.461668,-3.461668 0,-1.917763 1.543904,-3.461667 3.461668,-3.461667 z"
       fill="url(#B)"
       id="path6-5"
       style="fill:url(#B);stroke-width:1.15389" />
    <path
       d="m -40.988133,16.385281 -0.640409,1.018885 a 9.2311136,9.2311136 0 0 1 -6.427162,15.856745 9.2311136,9.2311136 0 0 1 -7.304119,-3.603596 l -1.097349,0.574637 20.72962,21.126558 A 29.939963,29.939963 0 0 0 -20.7293,36.35795 Z m -1.269278,2.021614 -2.641253,4.211696 a 3.4535904,3.4535904 0 0 1 -5.140576,4.244004 l -4.289006,2.251238 a 8.0772244,8.0772244 0 0 0 14.349766,-5.084036 8.0772244,8.0772244 0 0 0 -2.278931,-5.622902 z"
       fill="url(#A)"
       opacity="0.2"
       fill-rule="evenodd"
       id="path7-3"
       style="fill:url(#A);stroke-width:1.15389" />
    <path
       d="M -48.055704,13.644795 A 10.361925,10.361925 0 0 0 -58.440707,24.029797 10.361925,10.361925 0 0 0 -48.055704,34.4148 10.361925,10.361925 0 0 0 -37.670702,24.029797 10.361925,10.361925 0 0 0 -48.055704,13.644795 Z m 0,1.153889 a 9.2311136,9.2311136 0 1 1 0,18.462227 9.2311136,9.2311136 0 1 1 0,-18.462227 z m 0,1.153889 a 8.0772245,8.0772245 0 1 0 0,16.154449 8.0772245,8.0772245 0 1 0 0,-16.154449 z m 0,4.615557 c 1.917763,0 3.461667,1.543904 3.461667,3.461667 0,1.917764 -1.543904,3.461668 -3.461667,3.461668 -1.917764,0 -3.461668,-1.543904 -3.461668,-3.461668 0,-1.917763 1.543904,-3.461667 3.461668,-3.461667 z"
       fill="url(#C)"
       id="path8"
       style="fill:url(#linearGradient7);stroke-width:1.15389" />
    <path
       d="m -78.054516,23.096301 v 0.755797 c 0,16.718701 13.379345,30.178819 29.998812,30.178819 16.619466,0 29.998811,-13.460118 29.998811,-30.178819 v -0.755797 c -0.396938,16.366765 -13.630893,29.780727 -29.998811,29.780727 -16.367919,0 -29.601874,-13.413962 -29.998812,-29.780727 z m 29.998812,-8.297617 a 9.2311136,9.2311136 0 1 0 0,18.462227 9.2311136,9.2311136 0 1 0 0,-18.462227 z m 0,1.153889 a 8.0772245,8.0772245 0 1 1 0,16.154449 8.0772245,8.0772245 0 1 1 0,-16.154449 z"
       fill-opacity="0.294"
       fill="#2e3132"
       id="path9"
       style="stroke-width:1.15389" />
    <path
       d="m -29.593483,-5.9713232 c -6.37293,0 -11.538892,5.16596198 -11.538892,11.538892 0,6.3729302 5.165962,11.5388922 11.538892,11.5388922 6.37293,0 11.538892,-5.165962 11.538892,-11.5388922 0,-6.37293002 -5.165962,-11.538892 -11.538892,-11.538892 z"
       fill="url(#C)"
       id="path10"
       style="fill:url(#linearGradient8);stroke-width:1.15389" />
    <path
       d="m -33.275538,-1.3557652 a 4.6270957,4.6270957 0 0 1 3.682061,4.552093 4.6386346,4.6386346 0 0 1 -1.482748,3.403973 3.4732065,3.4732065 0 0 1 -0.825031,-2.242007 c 0,-0.190391 0.03,-0.372706 0.05885,-0.553866 a 4.6270957,4.6270957 0 0 0 -2.365473,4.038612 c 0,2.5754812 2.057384,4.6478652 4.615557,4.6478652 2.558172,0 4.615556,-2.072384 4.615556,-4.6478652 0.015,-4.745946 -3.577056,-8.72686402 -8.298772,-9.198805 z"
       fill="#8e45ad"
       id="path11"
       style="stroke-width:1.15389" />
  </g>
</svg>
