<?xml version="1.0" encoding="UTF-8"?>
<svg width="64" height="64" version="1.1" xmlns="http://www.w3.org/2000/svg" xmlns:xlink="http://www.w3.org/1999/xlink">
 <defs>
  <linearGradient id="linearGradient4372" x1="408.57" x2="422.57" y1="523.8" y2="537.8" gradientTransform="matrix(1.2999 0 0 1.3 -499.1 -648.94)" gradientUnits="userSpaceOnUse">
   <stop style="stop-color:#292c2f" offset="0"/>
   <stop style="stop-opacity:0" offset="1"/>
  </linearGradient>
  <linearGradient id="linearGradient3834" x2="0" y1="540.8" y2="506.8" gradientTransform="matrix(1.5293 0 0 1.5294 -592.82 -769.1)" gradientUnits="userSpaceOnUse">
   <stop style="stop-color:#22a7f0" offset="0"/>
   <stop style="stop-color:#19b5fe" offset="1"/>
  </linearGradient>
  <linearGradient id="linearGradient3862" x2="0" y1="540.8" y2="506.8" gradientTransform="matrix(.52941 0 0 .52941 -184.3 -245.31)" gradientUnits="userSpaceOnUse">
   <stop style="stop-color:#7cbaf8" offset="0"/>
   <stop style="stop-color:#f4fcff" offset="1"/>
  </linearGradient>
 </defs>
 <g transform="translate(-376.57 -491.8)">
  <g transform="matrix(1.1538 0 0 1.1538 -62.852 -80.584)">
   <path transform="translate(376.57 491.8)" d="m32 6c-14.403 0-25.998 11.596-25.998 26s11.595 26 25.998 26 25.998-11.596 25.998-26-11.595-26-25.998-26zm0 23c1.662 0 3 1.338 3 3s-1.338 3-3 3-3-1.338-3-3 1.338-3 3-3z" style="fill:url(#linearGradient3834)"/>
   <path transform="translate(376.57 491.8)" d="m38.125 25.375-3.3887 5.4023c0.16664 0.37383 0.26367 0.78556 0.26367 1.2227 0 1.662-1.338 3-3 3-0.64179 0-1.232-0.20428-1.7188-0.54492l-5.5625 2.9199 17.965 18.309c5.7701-2.5977 10.401-7.2293 12.998-13z" style="fill-rule:evenodd;fill:url(#linearGradient4372);opacity:.2"/>
   <path transform="translate(376.57 491.8)" d="m32 23c-4.986 0-9 4.014-9 9s4.014 9 9 9 9-4.014 9-9-4.014-9-9-9zm0 6c1.662 0 3 1.338 3 3s-1.338 3-3 3-3-1.338-3-3 1.338-3 3-3z" style="fill:url(#linearGradient3862)"/>
   <path transform="translate(376.57 491.8)" d="m6.002 31.191c-5e-3 0.21774 0 0.43513 0 0.6543 0 14.489 11.595 26.154 25.998 26.154s25.998-11.665 25.998-26.154c0-0.21917 5e-3 -0.43656 0-0.6543-0.34404 14.183-11.814 25.809-25.998 25.809s-25.654-11.625-25.998-25.809z" style="fill-opacity:.29412;fill:#2e3132"/>
   <path transform="translate(376.57 491.8)" d="m32 24a8 8 0 0 0-8 8 8 8 0 0 0 8 8 8 8 0 0 0 8-8 8 8 0 0 0-8-8zm0 1a7 7 0 0 1 7 7 7 7 0 0 1-7 7 7 7 0 0 1-7-7 7 7 0 0 1 7-7z" style="fill-opacity:.29412;fill:#2e3132;stroke-linecap:round"/>
  </g>
 </g>
</svg>
