<?xml version="1.0" encoding="UTF-8"?>
<svg width="64" height="64" version="1.1" xmlns="http://www.w3.org/2000/svg" xmlns:xlink="http://www.w3.org/1999/xlink">
 <defs>
  <linearGradient id="linearGradient4372" x1="408.57" x2="422.57" y1="523.8" y2="537.8" gradientTransform="matrix(1.4999 0 0 1.5 -200.23 -257.9)" gradientUnits="userSpaceOnUse" xlink:href="#linearGradient4227"/>
  <linearGradient id="linearGradient4227">
   <stop style="stop-color:#292c2f" offset="0"/>
   <stop style="stop-opacity:0" offset="1"/>
  </linearGradient>
  <linearGradient id="linearGradient3834" x2="0" y1="540.8" y2="506.8" gradientTransform="matrix(1.7645 0 0 1.7647 -308.37 -396.55)" gradientUnits="userSpaceOnUse" xlink:href="#linearGradient4300"/>
  <linearGradient id="linearGradient3862" x2="0" y1="540.8" y2="506.8" gradientTransform="matrix(.61085 0 0 .61086 162.99 207.83)" gradientUnits="userSpaceOnUse" xlink:href="#linearGradient4351"/>
  <linearGradient id="linearGradient4215" x1="29.735" x2="47.735" gradientTransform="matrix(1.282 0 0 1.2821 381.37 -790.75)" gradientUnits="userSpaceOnUse" xlink:href="#linearGradient4351"/>
  <linearGradient id="linearGradient4372-2" x1="407.56" x2="418.33" y1="522.92" y2="533.69" gradientTransform="matrix(1.4999 0 0 1.5 -188.32 -281.96)" gradientUnits="userSpaceOnUse" xlink:href="#linearGradient4227"/>
  <linearGradient id="linearGradient4300">
   <stop style="stop-color:#bdc3c7" offset="0"/>
   <stop style="stop-color:#dadfe1" offset="1"/>
  </linearGradient>
  <linearGradient id="linearGradient4351">
   <stop style="stop-color:#566472" offset="0"/>
   <stop style="stop-color:#6c7a89" offset="1"/>
  </linearGradient>
  <linearGradient id="linearGradient5250" x2="0" y1="545.79" y2="533.79" gradientTransform="matrix(1.1538 0 0 1.1538 421.8 500.11)" gradientUnits="userSpaceOnUse" xlink:href="#linearGradient4300"/>
 </defs>
 <g transform="translate(-376.57 -491.8)">
  <g transform="translate(-3.9997 -4)">
   <path d="m412.57 497.8c-16.618 0-29.997 13.38-29.997 30 0 16.62 13.379 30 29.997 30 16.618 0 29.997-13.38 29.997-30 0-16.62-13.379-30-29.997-30zm0 26.538c1.9177 0 3.4615 1.5438 3.4615 3.4615s-1.5438 3.4615-3.4615 3.4615-3.4615-1.5438-3.4615-3.4615 1.5438-3.4615 3.4615-3.4615z" style="fill:url(#linearGradient3834);stroke-width:1.1538"/>
   <path d="m419.64 520.15-0.64002 1.0186a9.2307 9.2308 0 0 1 2.8034 6.6256 9.2307 9.2308 0 0 1-9.2307 9.2308 9.2307 9.2308 0 0 1-7.3039-3.6035l-1.0975 0.57467 20.728 21.125c6.6578-2.9973 12-8.3415 14.998-15zm-1.2688 2.0215-2.6412 4.212c0.19227 0.43135 0.30423 0.90642 0.30423 1.4108 0 1.9177-1.5438 3.4615-3.4615 3.4615-0.74052 0-1.4215-0.23571-1.9832-0.62876l-4.2886 2.2514a8.0768 8.0769 0 0 0 6.2717 2.9928 8.0768 8.0769 0 0 0 8.0768-8.0769 8.0768 8.0769 0 0 0-2.2784-5.6228z" style="fill-rule:evenodd;fill:url(#linearGradient4372);opacity:.2;stroke-width:1.1538"/>
   <path d="m412.57 517.41c-5.753 0-10.385 4.6315-10.385 10.385 0 5.7531 4.6315 10.385 10.385 10.385s10.385-4.6315 10.385-10.385c0-5.7531-4.6315-10.385-10.385-10.385zm0 1.1538a9.2307 9.2308 0 0 1 9.2307 9.2308 9.2307 9.2308 0 0 1-9.2307 9.2308 9.2307 9.2308 0 0 1-9.2307-9.2308 9.2307 9.2308 0 0 1 9.2307-9.2308zm0 1.1538a8.0768 8.0769 0 0 0-8.0768 8.0769 8.0768 8.0769 0 0 0 8.0768 8.0769 8.0768 8.0769 0 0 0 8.0768-8.0769 8.0768 8.0769 0 0 0-8.0768-8.0769zm0 4.6154c1.9177 0 3.4615 1.5438 3.4615 3.4615s-1.5438 3.4615-3.4615 3.4615-3.4615-1.5438-3.4615-3.4615 1.5438-3.4615 3.4615-3.4615z" style="fill:url(#linearGradient3862);stroke-width:1.1538"/>
   <path d="m382.57 526.86c-6e-3 0.25124 0 0.50206 0 0.75495 0 16.718 13.379 30.178 29.997 30.178 16.618 0 29.997-13.46 29.997-30.178 0-0.25289 6e-3 -0.50371 0-0.75495-0.39697 16.365-13.631 29.779-29.997 29.779s-29.6-13.414-29.997-29.779z" style="fill-opacity:.29412;fill:#2e3132;stroke-width:1.1538"/>
   <path d="m412.57 518.57a9.2307 9.2308 0 0 0-9.2307 9.2308 9.2307 9.2308 0 0 0 9.2307 9.2308 9.2307 9.2308 0 0 0 9.2307-9.2308 9.2307 9.2308 0 0 0-9.2307-9.2308zm0 1.1538a8.0768 8.0769 0 0 1 8.0768 8.0769 8.0768 8.0769 0 0 1-8.0768 8.0769 8.0768 8.0769 0 0 1-8.0768-8.0769 8.0768 8.0769 0 0 1 8.0768-8.0769z" style="fill-opacity:.29412;fill:#2e3132;stroke-linecap:round;stroke-width:1.1538"/>
   <ellipse cx="431.03" cy="509.34" rx="11.538" ry="11.538" style="fill:url(#linearGradient4215);stroke-linecap:round;stroke-width:1.1538"/>
   <path d="m436.8 512.8-3.4615 3.4615h-8.0768l17.308 17.308s-1e-5 -25.385 0-25.385l-5.7692-5.7692z" style="fill-rule:evenodd;fill:url(#linearGradient4372-2);opacity:.2;stroke-width:1.1538"/>
   <path d="m425.26 502.41v13.846h8.0768l3.4615-3.4615v-10.385zm1.1538 1.1538h9.2307v8.0769h-3.4615v3.4615h-5.7692z" style="fill-rule:evenodd;fill:url(#linearGradient5250);stroke-width:1.1538"/>
  </g>
 </g>
</svg>
