<?xml version="1.0" encoding="UTF-8" standalone="no"?>
<svg
   width="64"
   height="64"
   version="1.1"
   viewBox="0 0 16.933 16.933"
   id="svg7"
   sodipodi:docname="file-manager.svg"
   inkscape:version="1.3.2 (091e20ef0f, 2023-11-25, custom)"
   xmlns:inkscape="http://www.inkscape.org/namespaces/inkscape"
   xmlns:sodipodi="http://sodipodi.sourceforge.net/DTD/sodipodi-0.dtd"
   xmlns:xlink="http://www.w3.org/1999/xlink"
   xmlns="http://www.w3.org/2000/svg"
   xmlns:svg="http://www.w3.org/2000/svg"
   xmlns:rdf="http://www.w3.org/1999/02/22-rdf-syntax-ns#"
   xmlns:cc="http://creativecommons.org/ns#"
   xmlns:dc="http://purl.org/dc/elements/1.1/">
  <sodipodi:namedview
     id="namedview7"
     pagecolor="#505050"
     bordercolor="#eeeeee"
     borderopacity="1"
     inkscape:showpageshadow="0"
     inkscape:pageopacity="0"
     inkscape:pagecheckerboard="0"
     inkscape:deskcolor="#505050"
     inkscape:zoom="2.8284271"
     inkscape:cx="-32.350135"
     inkscape:cy="49.320698"
     inkscape:window-width="1920"
     inkscape:window-height="968"
     inkscape:window-x="0"
     inkscape:window-y="0"
     inkscape:window-maximized="1"
     inkscape:current-layer="svg7" />
  <defs
     id="defs1">
    <linearGradient
       inkscape:collect="always"
       id="linearGradient11">
      <stop
         style="stop-color:#ffffff;stop-opacity:0;"
         offset="0"
         id="stop10" />
      <stop
         style="stop-color:#ffffff;stop-opacity:0;"
         offset="1"
         id="stop11" />
    </linearGradient>
    <inkscape:path-effect
       effect="fillet_chamfer"
       id="path-effect10"
       is_visible="true"
       lpeversion="1"
       nodesatellites_param="F,0,0,1,0,0,0,1 @ F,0,0,1,0,0,0,1 @ F,0,0,1,0,0.55259439,0,1 @ F,0,0,1,0,0,0,1 @ F,0,0,1,0,0,0,1 @ F,0,0,1,0,0,0,1 @ F,0,0,1,0,0,0,1 @ F,0,0,1,0,0,0,1 @ F,0,0,1,0,0,0,1 @ F,0,0,1,0,0,0,1 @ F,0,0,1,0,0,0,1 @ F,0,0,1,0,0.55149696,0,1"
       radius="0"
       unit="px"
       method="auto"
       mode="F"
       chamfer_steps="1"
       flexible="false"
       use_knot_distance="true"
       apply_no_radius="true"
       apply_with_radius="true"
       only_selected="false"
       hide_knots="false" />
    <inkscape:path-effect
       effect="fillet_chamfer"
       id="path-effect9"
       is_visible="true"
       lpeversion="1"
       nodesatellites_param="F,0,0,1,0,3.4190436,0,1 @ F,0,0,1,0,3.4399899,0,1 @ F,0,0,1,0,0,0,1 @ F,0,0,1,0,0,0,1"
       radius="0"
       unit="px"
       method="auto"
       mode="F"
       chamfer_steps="1"
       flexible="false"
       use_knot_distance="true"
       apply_no_radius="true"
       apply_with_radius="true"
       only_selected="false"
       hide_knots="false" />
    <linearGradient
       id="linearGradient8"
       inkscape:collect="always">
      <stop
         style="stop-color:#000000;stop-opacity:1;"
         offset="0"
         id="stop8" />
      <stop
         style="stop-color:#000000;stop-opacity:0;"
         offset="1"
         id="stop9" />
    </linearGradient>
    <inkscape:path-effect
       effect="fillet_chamfer"
       id="path-effect8"
       is_visible="true"
       lpeversion="1"
       nodesatellites_param="F,0,0,1,0,0,0,1 @ F,0,0,1,0,0,0,1 @ F,0,0,1,0,0,0,1 @ F,0,0,1,0,0,0,1 @ F,0,0,1,0,0,0,1 @ F,0,0,1,0,0,0,1 @ F,0,0,1,0,0,0,1 @ F,0,0,1,0,0,0,1"
       radius="0"
       unit="px"
       method="auto"
       mode="F"
       chamfer_steps="1"
       flexible="false"
       use_knot_distance="true"
       apply_no_radius="true"
       apply_with_radius="true"
       only_selected="false"
       hide_knots="false" />
    <inkscape:path-effect
       effect="fillet_chamfer"
       id="path-effect7"
       is_visible="true"
       lpeversion="1"
       nodesatellites_param="F,0,0,1,0,0,0,1 @ F,0,0,1,0,0,0,1 @ F,0,0,1,0,0,0,1 @ F,0,0,1,0,0,0,1 @ F,0,0,1,0,0,0,1 @ F,0,0,1,0,3.43981,0,1 @ F,0,0,1,0,0,0,1 @ F,0,0,1,0,0,0,1"
       radius="0"
       unit="px"
       method="auto"
       mode="F"
       chamfer_steps="1"
       flexible="false"
       use_knot_distance="true"
       apply_no_radius="true"
       apply_with_radius="true"
       only_selected="false"
       hide_knots="false" />
    <filter
       id="filter2076-6"
       x="-0.048000001"
       y="-0.048000001"
       width="1.096"
       height="1.096"
       color-interpolation-filters="sRGB">
      <feGaussianBlur
         stdDeviation="1.1"
         id="feGaussianBlur1" />
    </filter>
    <linearGradient
       inkscape:collect="always"
       xlink:href="#linearGradient8"
       id="linearGradient9"
       x1="-6.4574356"
       y1="6.2557006"
       x2="0.57234305"
       y2="18.654308"
       gradientUnits="userSpaceOnUse"
       gradientTransform="translate(14.677577,-5.4204028)" />
    <linearGradient
       inkscape:collect="always"
       xlink:href="#linearGradient11"
       id="linearGradient921"
       x1="337.87497"
       y1="472.30182"
       x2="357.40253"
       y2="502.19492"
       gradientUnits="userSpaceOnUse"
       gradientTransform="matrix(-0.25081683,0,0,0.35178193,96.171354,-161.14723)" />
    <linearGradient
       inkscape:collect="always"
       id="linearGradient919">
      <stop
         style="stop-color:#000000;stop-opacity:1;"
         offset="0"
         id="stop915" />
      <stop
         style="stop-color:#147cdc;stop-opacity:0;"
         offset="1"
         id="stop917" />
    </linearGradient>
    <inkscape:path-effect
       effect="fillet_chamfer"
       id="path-effect10-5"
       is_visible="true"
       lpeversion="1"
       nodesatellites_param="F,0,0,1,0,0,0,1 @ F,0,0,1,0,0,0,1 @ F,0,0,1,0,0.55259439,0,1 @ F,0,0,1,0,0,0,1 @ F,0,0,1,0,0,0,1 @ F,0,0,1,0,0,0,1 @ F,0,0,1,0,0,0,1 @ F,0,0,1,0,0,0,1 @ F,0,0,1,0,0,0,1 @ F,0,0,1,0,0,0,1 @ F,0,0,1,0,0,0,1 @ F,0,0,1,0,0.55149696,0,1"
       radius="0"
       unit="px"
       method="auto"
       mode="F"
       chamfer_steps="1"
       flexible="false"
       use_knot_distance="true"
       apply_no_radius="true"
       apply_with_radius="true"
       only_selected="false"
       hide_knots="false" />
    <linearGradient
       inkscape:collect="always"
       xlink:href="#linearGradient919"
       id="linearGradient10"
       gradientUnits="userSpaceOnUse"
       gradientTransform="matrix(-0.25081683,0,0,0.35178193,96.171354,-161.14723)"
       x1="337.87497"
       y1="472.30182"
       x2="357.40253"
       y2="502.19492" />
  </defs>
  <metadata
     id="metadata1">
    <rdf:RDF>
      <cc:Work
         rdf:about="">
        <dc:format>image/svg+xml</dc:format>
        <dc:type
           rdf:resource="http://purl.org/dc/dcmitype/StillImage" />
      </cc:Work>
    </rdf:RDF>
  </metadata>
  <rect
     transform="scale(0.26458)"
     x="4.5"
     y="4.5"
     width="55"
     height="55"
     rx="13.002"
     ry="13.002"
     filter="url(#filter2076-6)"
     opacity="0.3"
     id="rect1" />
  <path
     d="m 4.631,1.1906 c -1.9058,0 -3.44,1.5342 -3.44,3.44 v 7.6717 c 0,1.9058 1.5342,3.44 3.44,3.44 h 7.6717 c 1.9058,0 3.44,-1.5342 3.44,-3.44 V 4.6306 c 0,-1.9058 -1.5342,-3.44 -3.44,-3.44 z"
     fill="#f5aa1e"
     stroke-linecap="round"
     stroke-width="0.079373"
     style="paint-order:stroke fill markers;fill:#3593e6;fill-opacity:1"
     id="path1" />
  <path
     style="opacity:0.35;fill:url(#linearGradient9);fill-opacity:1;fill-rule:evenodd;stroke-width:0.291036;stroke-linecap:round;paint-order:fill markers stroke"
     id="rect8"
     width="14.462863"
     height="7.143609"
     x="1.2796471"
     y="1.1906101"
     inkscape:path-effect="#path-effect9"
     sodipodi:type="rect"
     d="M 4.6986907,1.1906101 H 12.30252 A 3.4399899,3.4399899 45 0 1 15.74251,4.6306 l 0,3.7036191 H 1.2796471 V 4.6096537 A 3.4190436,3.4190436 135 0 1 4.6986907,1.1906101 Z"
     transform="matrix(1.0061293,0,0,1,-0.09649044,0)" />
  <path
     d="m 4.852,2.77806 c -1.1488,0 -2.0737,0.92498 -2.0737,2.0737 v 7.2294 c 0,1.1488 0.92498,2.0737 2.0737,2.0737 h 7.2294 c 1.1488,0 2.0737,-0.92498 2.0737,-2.0737 v -7.2294 c 0,-1.1488 -0.92498,-2.0737 -2.0737,-2.0737 z"
     fill="#fafafa"
     stroke-linecap="round"
     stroke-width="0.079373"
     style="paint-order:stroke fill markers"
     id="path2" />
  <g
     fill="#f08705"
     id="g6"
     transform="translate(15.065,0.50486)"
     style="fill:#085daa;fill-opacity:1">
    <path
       d="m -10.945,6.3652 c -0.0057,0.039649 -0.0092,0.081 -0.01463,0.12163 h 8.7213 C -2.24343,6.446205 -2.24723,6.404819 -2.25353,6.3652 Z"
       opacity="0.6"
       stroke-width="0.68981"
       style="paint-order:normal;fill:#085daa;fill-opacity:1"
       id="path3" />
    <path
       d="m -10.801,3.7228 c 0.0051,0.040625 0.0099,0.081176 0.01548,0.12163 h 8.376 c 0.0052,-0.043705 0.0097,-0.078492 0.01437,-0.12163 z"
       opacity="0.6"
       stroke-width="0.67718"
       style="paint-order:normal;fill:#085daa;fill-opacity:1"
       id="path4" />
    <path
       d="m -10.945,9.0075 c -0.0057,0.039649 -0.0092,0.081 -0.01463,0.12163 h 8.7213 C -2.24343,9.088505 -2.24723,9.047119 -2.25353,9.0075 Z"
       opacity="0.6"
       stroke-width="0.68981"
       style="paint-order:normal;fill:#085daa;fill-opacity:1"
       id="path5" />
    <path
       d="m -10.945,11.65 c -0.0057,0.03965 -0.0092,0.081 -0.01463,0.12163 h 8.7213 C -2.24343,11.731 -2.24723,11.68962 -2.25353,11.65 Z"
       opacity="0.6"
       stroke-width="0.68981"
       style="paint-order:normal;fill:#085daa;fill-opacity:1"
       id="path6" />
  </g>
  <path
     d="m 1.752,3.58986 c -0.31183,0 -0.56274,0.25092 -0.56274,0.56275 v 1.8278 c 0,0.022682 0.0041,0.044178 0.0067,0.066145 -0.0055,0.54053 -0.0052,1.1567 -0.0052,1.9652 v 0.22427 h -5.16e-4 v 4.0663 c 0,0.03645 0.0041,0.07184 0.0052,0.108 0.002,0.05118 0.0031,0.10258 0.0078,0.15296 0.12639,1.6956 1.4693,3.0388 3.1646,3.1662 0.08518,0.0081 0.17144,0.0128 0.25941,0.01292 0.0012,3e-6 0.0024,0 0.0036,0 h 7.6712 5.17e-4 c 0.08936,0 0.17707,-0.0047 0.26354,-0.01292 1.691,-0.12755 3.0311,-1.4649 3.1625,-3.1548 0.0087,-0.08956 0.01395,-0.18019 0.01395,-0.27233 v -4.1439 c 1.6e-5,-0.00177 5.17e-4,-0.0034 5.17e-4,-0.00517 v -1.8278 c 0,-0.31183 -0.25092,-0.56275 -0.56274,-0.56275 h -6.0068 c -0.27152,0 -0.48409,-0.01833 -0.66041,-0.065111 -0.17632,-0.04678 -0.31607,-0.12227 -0.44079,-0.23564 -0.12474,-0.11337 -0.23466,-0.2648 -0.3514,-0.46456 -0.11674,-0.19977 -0.24036,-0.44746 -0.39273,-0.75343 -0.07349,-0.18081 -0.17612,-0.31227 -0.28835,-0.4072 C 6.927628,3.741862 6.806008,3.683314 6.693118,3.647144 6.467338,3.574805 6.278168,3.592885 6.278168,3.592885 h -2.5533 c -0.01048,-5.76e-4 -0.02036,-0.0031 -0.03101,-0.0031 h -0.91517 z"
     fill="#ffc841"
     stroke-width="0.26458"
     id="path7"
     style="fill:#3593e6;fill-opacity:1" />
  <path
     style="opacity:0.1;fill:url(#linearGradient921);fill-opacity:1;stroke-width:0.29704"
     d="m 6.4009976,3.5928887 c 1.3864826,0.035462 0.8271389,2.1975041 2.6475357,2.1684186 l 6.1419507,0.00472 a 0.55298508,0.55298508 45.02383 0 1 0.552559,0.5530195 l -5.33e-4,8.5308493 v 0.351784 c 0,0.194886 -0.111862,0.351781 -0.250817,0.351781 H 1.4459507 c -0.1389551,0 -0.2508167,-0.156895 -0.2508167,-0.351781 V 14.849902 5.3559141 5.3517924 4.1443797 A 0.55149632,0.55149632 135.00003 0 1 1.746631,3.5928833 Z"
     id="path893"
     sodipodi:nodetypes="ccccssssccccc"
     inkscape:path-effect="#path-effect10"
     inkscape:original-d="m 6.4009976,3.5928887 c 1.3864826,0.035462 0.8271389,2.1975041 2.6475357,2.1684186 l 6.6945447,0.00515 -5.68e-4,9.0834439 v 0.351784 c 0,0.194886 -0.111862,0.351781 -0.250817,0.351781 H 1.4459507 c -0.1389551,0 -0.2508167,-0.156895 -0.2508167,-0.351781 V 14.849902 5.3559141 5.3517924 3.5928827 Z" />
  <path
     style="opacity:0.1;fill:url(#linearGradient10);fill-opacity:1;stroke-width:0.29704"
     d="m 6.4009976,3.5928887 c 1.3864826,0.035462 0.8271389,2.1975041 2.6475357,2.1684186 l 6.1419507,0.00472 a 0.55298508,0.55298508 45.02383 0 1 0.552559,0.5530195 l -5.33e-4,8.5308493 v 0.351784 c 0,0.194886 -0.111862,0.351781 -0.250817,0.351781 H 1.4459507 c -0.1389551,0 -0.2508167,-0.156895 -0.2508167,-0.351781 V 14.849902 5.3559141 5.3517924 4.1443797 A 0.55149632,0.55149632 135.00003 0 1 1.746631,3.5928833 Z"
     id="path893-6"
     sodipodi:nodetypes="ccccssssccccc"
     inkscape:path-effect="#path-effect10-5"
     inkscape:original-d="m 6.4009976,3.5928887 c 1.3864826,0.035462 0.8271389,2.1975041 2.6475357,2.1684186 l 6.6945447,0.00515 -5.68e-4,9.0834437 v 0.351784 c 0,0.194886 -0.111862,0.351781 -0.250817,0.351781 H 1.4459507 c -0.1389551,0 -0.2508167,-0.156895 -0.2508167,-0.351781 V 14.849902 5.3559141 5.3517924 3.5928827 Z" />
  <rect
     x="2.6790004"
     y="5.1996598"
     width="3.6545"
     height="0.52916002"
     rx="0"
     ry="0.26458001"
     fill="#f5aa1e"
     stroke-width="0.85263"
     style="paint-order:fill markers stroke;fill:#ffffff;fill-opacity:1;opacity:0.9"
     id="rect7" />
</svg>
